<svg width="136" height="132" viewBox="0 0 136 132" fill="none" xmlns="http://www.w3.org/2000/svg">
<path d="M34.5 0C23.3333 14.1667 0.8 43.4 0 47L11 52.5L7.5 85.5L23 95L16 112.5L23 121L42.5 118.5L59 132L72.5 116.5C76.1486 124.709 84.2896 130 93.2733 130H100.742C110.305 130 119.266 125.334 124.75 117.5L126.563 114.91C132.782 106.025 132.555 94.1408 126 85.5L135.5 62L113 47L121.373 30.2537C124.066 24.8684 122.596 18.332 117.857 14.6178C112.202 10.1853 103.996 11.3386 99.7819 17.1583L97 21V12.5L75.5 0L54.5 18.5V9L34.5 0Z" fill="#8A38F5"/>
</svg>
