<svg width="48" height="48" viewBox="0 0 48 48" fill="none" xmlns="http://www.w3.org/2000/svg">
<rect width="48" height="48" rx="12" fill="#8A38F5"/>
<g clip-path="url(#clip0_636_1754)">
<path d="M17.394 18.2261C19.7172 18.0693 20.6929 20.2985 21.0593 22.2151C21.4721 24.3749 21.3132 26.5047 21.381 28.6852L21.5114 33.6154L21.5417 35.0977C21.5452 35.3216 21.5582 35.6368 21.5462 35.8547C21.7685 35.7602 22.0079 35.6835 22.2374 35.5977C22.8325 35.3744 23.4292 35.1557 24.0275 34.9413C24.5923 34.7349 25.1458 34.5444 25.6512 34.2172C26.4373 33.7083 27.0744 32.8979 27.2543 31.9693C27.3675 31.3851 27.3455 30.8483 27.3428 30.2577L27.3379 28.5518L27.3361 27.4227C27.3365 27.161 27.3474 26.8933 27.3198 26.6327C27.297 26.4179 27.2553 26.1882 27.133 26.0054C27.0471 25.8771 26.9111 25.7755 26.7578 25.7449C26.411 25.6757 25.1668 26.0985 24.7672 26.2304C24.5721 26.2946 24.1545 26.4791 23.9614 26.4396C23.9232 26.4082 23.9092 26.3188 23.9078 26.2702C23.8967 25.8847 23.8899 25.4979 23.8772 25.1126C23.8718 24.9496 23.9763 24.9144 24.113 24.8643C24.8223 24.6044 25.5336 24.3486 26.2427 24.088L31.4949 22.1637L33.1525 21.5573C33.3421 21.4869 34.5915 20.9864 34.6941 21.074C34.7527 21.2645 34.7421 21.9151 34.7505 22.1557L34.8421 25.4257C34.8359 25.7516 34.8512 26.2271 34.8672 26.5519C34.9006 27.2291 34.8973 27.913 34.9194 28.5838C34.9729 29.9851 35.0529 31.396 34.0161 32.5007C33.1651 33.4074 32.2523 33.7751 31.1144 34.1908L29.6879 34.713L25.0382 36.4163L18.9236 38.6543L16.9152 39.3904C16.2846 39.6216 15.6813 39.8983 15.0049 39.9377C13.1401 40.0458 13.2802 37.9227 13.2753 36.6638L13.2557 34.953L13.1955 29.2288C13.1653 27.134 13.1459 25.0369 13.123 22.9418L13.1096 21.1918C13.1068 20.8806 13.0987 20.5623 13.1047 20.2515C13.1096 20.1838 13.1046 20.1375 13.1624 20.0911C14.3198 19.1602 15.893 18.2575 17.394 18.2261Z" fill="#F9F5FF"/>
<path d="M30.6206 10.1921C29.4612 10.6247 28.2995 11.0514 27.1357 11.4723L21.7752 13.4341L19.3931 14.3065C18.9808 14.4574 18.4953 14.6191 18.101 14.8019C17.7805 14.9686 17.5369 15.1563 17.3703 15.4837C17.3083 15.6055 17.2908 16.0111 17.2572 16.03C16.1158 16.6697 15.0544 17.2469 14.1494 18.2319C13.9224 18.4821 13.7235 18.756 13.5559 19.049C13.4795 19.1821 13.3643 19.5286 13.2829 19.5745C13.2058 19.5907 13.1031 19.5794 13.0952 19.4803C13.069 19.1399 13.0979 18.7861 13.082 18.4467C13.027 17.275 13.0957 16.1023 13.8523 15.1397C14.5003 14.3151 15.298 14.0299 16.2454 13.6878L17.4664 13.2414L21.7704 11.6675L27.942 9.40739L29.8505 8.70896C30.8083 8.35978 32.4733 7.64337 33.4181 8.35607C34.114 8.9055 34.1107 9.83097 34.1648 10.6192C34.2349 11.6392 33.9978 12.4019 33.3641 13.2082C32.6687 14.0933 31.6068 14.477 30.5882 14.8674C29.7693 15.1738 28.9487 15.4758 28.1266 15.7734L27.2658 16.0905C27.1149 16.1461 26.666 16.335 26.5284 16.2898C26.4229 16.19 26.5439 15.9272 26.5945 15.8157C27.0223 14.8726 27.7532 13.8496 28.5528 13.1808C28.5523 13.1806 28.3292 13.1848 28.2994 13.1835C28.3035 13.1214 28.3069 13.0316 28.3154 12.9725C28.5471 12.7242 28.7841 12.4808 29.0262 12.2426C29.1098 12.1599 29.3506 11.932 29.4154 11.8484C29.4427 11.8313 29.5987 11.6902 29.6326 11.6605C29.5087 11.729 29.3964 11.7666 29.2638 11.8156C29.1341 11.8654 28.7747 12.0306 28.6608 11.9581C28.6411 11.9156 28.6396 11.8435 28.6517 11.7973C28.6939 11.6361 30.4477 10.4284 30.7055 10.2552C30.8116 10.1758 30.9444 10.1107 31.0416 10.0259C30.8924 10.0905 30.7743 10.1405 30.6206 10.1921Z" fill="#F9F5FF"/>
<path d="M20.6214 14.2407C20.6702 14.2447 20.6812 14.2583 20.7055 14.2948C20.7139 14.4894 20.4295 14.6634 20.2918 14.7789C19.7163 15.2616 18.6178 16.2782 17.8073 15.8259C17.6874 15.7194 17.5156 15.5317 17.5957 15.3598C17.7012 15.2861 17.9612 15.1966 18.0892 15.1484L18.8368 14.8675C19.1748 14.7407 20.3244 14.2652 20.6214 14.2407Z" fill="#F9F5FF"/>
</g>
<defs>
<clipPath id="clip0_636_1754">
<rect width="22" height="32" fill="white" transform="translate(13 8)"/>
</clipPath>
</defs>
</svg>
