<svg width="140" height="165" viewBox="0 0 140 165" fill="none" xmlns="http://www.w3.org/2000/svg">
<path d="M32.585 7.24512C40.9874 14.7139 68.7256 28.2354 105.61 12.375L109.392 10.749L138.653 28.46L118.835 62.3584L137.953 80.9736L124.218 103.16C132.546 117.914 129.729 136.636 117.09 148.272C106.632 157.901 91.5607 160.639 78.3838 155.306L60.8291 148.2L54.6377 164.396L1.59863 149.544L12.5244 121.621L9.97656 116.524L13.959 90.6348L17.3857 88.7314L17.8301 88.4834C10.9512 77.463 10.5607 63.1682 17.6455 51.5566L18.582 50.0205L0.72168 42.5791L25.3105 0.77832L32.585 7.24512Z" stroke="#8A38F5"/>
</svg>
