<svg width="154" height="152" viewBox="0 0 154 152" fill="none" xmlns="http://www.w3.org/2000/svg">
<path d="M68.9868 13.2197L83.2485 0.65625L109.949 16.1787C116.499 12.9636 124.608 13.524 130.767 18.3516C138.124 24.1181 140.405 34.2661 136.225 42.627L130.615 53.8457L152.717 68.5811L142.454 93.9697C148.535 104.599 148.051 117.936 140.889 128.168L139.076 130.757C132.282 140.462 121.18 146.243 109.333 146.243H101.865C93.6408 146.243 85.9571 142.853 80.4497 137.137L68.4116 150.959L48.9907 135.069L28.646 137.678L16.5522 122.993L22.8989 107.125L8.66455 98.4014L12.1177 65.832L0.572754 60.0596L1.7583 54.7246C2.01278 53.5795 2.50143 52.5891 2.75146 52.0986C3.075 51.4639 3.46386 50.7913 3.86963 50.126C4.6859 48.7876 5.76201 47.1694 6.99268 45.3906C9.46558 41.8163 12.7668 37.301 16.3491 32.5127C23.5251 22.921 31.9888 12.0215 37.5942 4.91016L40.978 0.616211L68.9868 13.2197Z" stroke="#8A38F5"/>
</svg>
