<svg width="264" height="264" viewBox="0 0 264 264" fill="none" xmlns="http://www.w3.org/2000/svg">
<rect width="264" height="264" fill="url(#paint0_linear_663_1462)"/>
<g clip-path="url(#clip0_663_1462)">
<path d="M104.176 107.142C113.786 106.481 117.822 115.885 119.337 123.97C121.045 133.082 120.387 142.067 120.668 151.266L121.207 172.065L121.333 178.319C121.347 179.264 121.401 180.593 121.351 181.513C122.271 181.114 123.261 180.79 124.211 180.428C126.672 179.486 129.14 178.564 131.615 177.659C133.951 176.788 136.24 175.985 138.331 174.605C141.583 172.458 144.218 169.038 144.962 165.121C145.43 162.656 145.339 160.392 145.328 157.9L145.308 150.703L145.301 145.94C145.302 144.836 145.347 143.707 145.233 142.607C145.139 141.701 144.966 140.732 144.46 139.961C144.105 139.42 143.543 138.991 142.909 138.862C141.474 138.57 136.327 140.354 134.675 140.91C133.868 141.181 132.14 141.959 131.342 141.793C131.184 141.66 131.125 141.283 131.12 141.078C131.074 139.452 131.046 137.82 130.993 136.194C130.971 135.507 131.403 135.358 131.969 135.147C134.903 134.051 137.845 132.971 140.778 131.872L162.503 123.754L169.359 121.196C170.144 120.898 175.312 118.787 175.736 119.156C175.978 119.96 175.934 122.705 175.969 123.72L176.348 137.515C176.322 138.89 176.386 140.896 176.452 142.267C176.59 145.123 176.576 148.009 176.668 150.839C176.889 156.75 177.22 162.702 172.931 167.363C169.411 171.188 165.636 172.739 160.929 174.493L155.028 176.696L135.795 183.882L110.503 193.323L102.196 196.429C99.5876 197.404 97.0918 198.572 94.294 198.738C86.5805 199.194 87.1604 190.237 87.1398 184.926L87.0586 177.709L86.8096 153.56C86.6847 144.722 86.6047 135.875 86.5097 127.036L86.4544 119.653C86.443 118.341 86.4092 116.998 86.4344 115.687C86.4544 115.401 86.434 115.206 86.6727 115.01C91.4603 111.083 97.9677 107.274 104.176 107.142Z" fill="#F9F5FF"/>
<path d="M158.884 73.2486C154.089 75.0738 149.283 76.8742 144.469 78.6495L122.297 86.9261L112.443 90.6063C110.738 91.2431 108.73 91.9252 107.099 92.6964C105.773 93.3997 104.765 94.1915 104.076 95.5727C103.82 96.0865 103.747 97.7978 103.608 97.8773C98.8873 100.576 94.4967 103.011 90.7533 107.167C89.8147 108.222 88.9916 109.378 88.2986 110.614C87.9824 111.175 87.5061 112.637 87.1692 112.831C86.8504 112.899 86.4255 112.851 86.3929 112.433C86.2846 110.997 86.4041 109.505 86.3382 108.073C86.1107 103.13 86.3948 98.1824 89.5244 94.1213C92.205 90.6428 95.5046 89.4396 99.4233 87.9961L104.474 86.1132L122.277 79.4732L147.805 69.9383L155.699 66.9918C159.661 65.5187 166.548 62.4964 170.456 65.5031C173.334 67.8209 173.321 71.7253 173.544 75.0508C173.834 79.3538 172.854 82.5713 170.232 85.9731C167.356 89.707 162.964 91.3259 158.75 92.9726C155.363 94.2655 151.969 95.5396 148.568 96.795L145.008 98.1327C144.383 98.3672 142.527 99.1643 141.957 98.9736C141.521 98.5524 142.022 97.4439 142.231 96.9735C144.001 92.9945 147.024 88.6788 150.331 85.8575C150.329 85.8566 149.406 85.8742 149.283 85.8687C149.3 85.607 149.314 85.228 149.349 84.9785C150.308 83.9309 151.288 82.9043 152.289 81.8993C152.635 81.5506 153.631 80.5889 153.899 80.2362C154.012 80.1642 154.657 79.5688 154.798 79.4435C154.285 79.7326 153.821 79.8914 153.272 80.0979C152.736 80.3079 151.249 81.005 150.778 80.6989C150.696 80.5198 150.69 80.2155 150.74 80.0208C150.915 79.3405 158.169 74.2458 159.235 73.5152C159.674 73.1799 160.224 72.9054 160.626 72.5478C160.008 72.8203 159.52 73.031 158.884 73.2486Z" fill="#F9F5FF"/>
<path d="M117.524 90.3281C117.726 90.3448 117.771 90.4022 117.872 90.5563C117.907 91.3772 116.73 92.1115 116.161 92.5986C113.78 94.6351 109.236 98.9239 105.884 97.0155C105.388 96.5663 104.678 95.7743 105.009 95.0492C105.445 94.7382 106.52 94.3609 107.05 94.1572L110.142 92.9724C111.54 92.4375 116.296 90.4316 117.524 90.3281Z" fill="#F9F5FF"/>
</g>
<defs>
<linearGradient id="paint0_linear_663_1462" x1="-2.37481e-06" y1="9" x2="233.201" y2="258.171" gradientUnits="userSpaceOnUse">
<stop stop-color="#8A38F5"/>
<stop offset="1" stop-color="#3A1776"/>
</linearGradient>
<clipPath id="clip0_663_1462">
<rect width="91" height="135" fill="white" transform="translate(86 64)"/>
</clipPath>
</defs>
</svg>
