<svg width="32" height="32" viewBox="0 0 32 32" fill="none" xmlns="http://www.w3.org/2000/svg">
<rect width="32" height="32" rx="16" fill="url(#paint0_linear_665_1439)"/>
<path d="M11.1643 11.657C12.8632 11.5391 13.5767 13.2167 13.8446 14.6591C14.1465 16.2846 14.0302 17.8875 14.0798 19.5285L14.1752 23.2389L14.1973 24.3545C14.1975 24.3638 14.1977 24.3733 14.1978 24.383C14.2025 24.6313 14.4743 24.8199 14.7061 24.7308C15.1413 24.5627 15.5776 24.3981 16.0152 24.2368C16.4282 24.0814 16.8329 23.9381 17.2025 23.6918C17.7774 23.3088 18.2432 22.6989 18.3748 22C18.4576 21.5604 18.4415 21.1564 18.4395 20.7119L18.436 19.428L18.4346 18.5783C18.4349 18.3814 18.4429 18.1799 18.4227 17.9838C18.406 17.8221 18.3755 17.6492 18.2861 17.5116C18.2233 17.4151 18.1239 17.3387 18.0117 17.3156C17.7581 17.2635 16.8483 17.5817 16.5561 17.681C16.45 17.7169 16.2538 17.803 16.1021 17.8325C16.0143 17.8495 15.9301 17.8004 15.9276 17.711C15.9195 17.4209 15.9146 17.1297 15.9052 16.8397C15.9013 16.7171 15.9777 16.6906 16.0777 16.6529C16.5964 16.4573 17.1165 16.2648 17.6351 16.0687L22.688 14.1641C22.7354 14.1459 22.8737 14.0899 23.0381 14.0266C23.536 13.835 23.8383 14.0813 23.8566 14.6144L23.9235 17.0754C23.9189 17.3207 23.9302 17.6785 23.9419 17.923C23.9663 18.4326 23.9639 18.9473 23.9801 19.4522C24.0192 20.5067 24.0776 21.5686 23.3195 22.4C22.6972 23.0823 22.0297 23.359 21.1975 23.672L10.8141 27.5851C10.353 27.7591 9.91183 27.9674 9.4172 27.997C8.05352 28.0784 8.15604 26.4805 8.1524 25.5331L8.09403 19.9376C8.07195 18.361 8.0578 16.7828 8.04102 15.206L8.03123 13.889C8.02923 13.6548 8.02325 13.4152 8.0277 13.1814C8.03124 13.1303 8.02762 13.0955 8.06983 13.0606C8.91622 12.36 10.0667 11.6806 11.1643 11.657Z" fill="#F9F5FF"/>
<path d="M20.8361 5.61077C19.9882 5.93637 19.1387 6.25754 18.2877 6.57425L12.6258 8.70724C12.3243 8.82084 11.9693 8.94253 11.6809 9.0801C11.4465 9.20556 11.2684 9.34682 11.1465 9.59321C11.1012 9.68488 11.0884 9.99015 11.0638 10.0043C10.2292 10.4858 9.45301 10.9202 8.79122 11.6615C8.62528 11.8498 8.47977 12.056 8.35724 12.2764C8.32674 12.3311 8.28782 12.4336 8.24906 12.521C8.20121 12.629 8.02945 12.7188 8.02034 12.601C8.00119 12.3449 8.02233 12.0786 8.01067 11.8231C7.97045 10.9413 8.02067 10.0588 8.57395 9.3343C9.04786 8.71376 9.6312 8.49912 10.324 8.24161L20.273 4.4946C20.9734 4.23182 22.1909 3.69265 22.8818 4.22902C23.3907 4.64252 23.3883 5.33902 23.4278 5.93227C23.4791 6.69989 23.3057 7.27387 22.8423 7.88071C22.3338 8.54682 21.5572 8.83561 20.8124 9.12937C20.2136 9.36002 19.6135 9.58731 19.0123 9.81125L18.3828 10.0499C18.3446 10.0644 18.2801 10.091 18.208 10.1181C17.9753 10.2056 17.7916 10.0706 17.8919 9.84311C18.1867 9.17441 18.678 8.45242 19.2229 7.95021C19.2565 7.91919 19.2268 7.86177 19.1811 7.86216C19.1537 7.8624 19.14 7.83967 19.1415 7.81234C19.1429 7.78831 19.1444 7.76299 19.1464 7.73996C19.1485 7.71601 19.159 7.69376 19.1752 7.67598C19.3367 7.49856 19.5017 7.32453 19.6702 7.15399C19.7303 7.09278 19.9018 6.92573 19.9524 6.86042C19.954 6.8583 19.9538 6.85799 19.956 6.85646C19.9783 6.84096 19.9493 6.7927 19.9239 6.80239C19.8981 6.81227 19.8716 6.8221 19.8439 6.83262C19.7787 6.85838 19.6342 6.92518 19.5231 6.94671C19.4442 6.96199 19.3765 6.8967 19.3963 6.81887C19.4272 6.69751 20.7096 5.78866 20.8981 5.65832C20.9409 5.62539 20.9169 5.58202 20.8661 5.60022C20.8563 5.60373 20.8463 5.60724 20.8361 5.61077Z" fill="#F9F5FF"/>
<path d="M13.5061 8.65965C13.5181 8.65792 13.5334 8.6577 13.5451 8.661C13.5827 8.67155 13.5891 8.71981 13.577 8.75691C13.5373 8.87942 13.3701 8.98748 13.283 9.0626C12.8874 9.40417 12.1536 10.1009 11.5746 9.90008C11.4997 9.87409 11.4359 9.82764 11.3853 9.76658C11.2641 9.62052 11.3966 9.44622 11.5737 9.37824C11.6112 9.36385 11.6457 9.35099 11.6724 9.34065L12.219 9.12929C12.4598 9.03631 13.2641 8.69423 13.5061 8.65965Z" fill="#F9F5FF"/>
<defs>
<linearGradient id="paint0_linear_665_1439" x1="-2.87856e-07" y1="1.09091" x2="28.2668" y2="31.2934" gradientUnits="userSpaceOnUse">
<stop/>
<stop offset="1" stop-color="#3A1776"/>
</linearGradient>
</defs>
</svg>
