<svg width="160" height="160" viewBox="0 0 160 160" fill="none" xmlns="http://www.w3.org/2000/svg">
<rect width="160" height="160" fill="url(#paint0_linear_663_1462)"/>
<g clip-path="url(#clip0_663_1462)">
<path d="M58.1817 60.5545C65.6795 60.0401 68.8282 67.3547 70.0106 73.6433C71.343 80.7303 70.8299 87.7188 71.0489 94.8735L71.4698 111.051L71.5674 115.915C71.5788 116.649 71.6209 117.683 71.5819 118.399C72.2994 118.088 73.0721 117.837 73.8128 117.555C75.7332 116.822 77.6589 116.105 79.59 115.401C81.4126 114.724 83.1988 114.099 84.8301 113.025C87.367 111.356 89.4229 108.696 90.0037 105.649C90.3691 103.732 90.2981 101.971 90.2891 100.033L90.2736 94.4356L90.2677 90.7309C90.2687 89.8721 90.304 88.9939 90.2149 88.1387C90.1414 87.4338 90.0068 86.6801 89.612 86.0802C89.3348 85.6593 88.8961 85.3261 88.4013 85.2256C87.282 84.9985 83.2666 86.3858 81.9771 86.8185C81.3476 87.0292 79.9996 87.6347 79.3767 87.505C79.2533 87.402 79.2079 87.1087 79.2034 86.9493C79.1679 85.6844 79.1459 84.415 79.1047 83.1507C79.0873 82.616 79.4245 82.5006 79.8659 82.336C82.1549 81.4834 84.4504 80.6441 86.739 79.789L103.689 73.4747L109.039 71.4851C109.651 71.254 113.683 69.6119 114.014 69.8992C114.203 70.5242 114.169 72.659 114.196 73.4486L114.492 84.1781C114.471 85.2476 114.521 86.8078 114.573 87.8737C114.68 90.0957 114.67 92.3397 114.741 94.5407C114.914 99.1386 115.172 103.768 111.826 107.393C109.079 110.368 106.134 111.575 102.461 112.939L97.8575 114.652L82.8516 120.241L63.1183 127.584L56.6365 130C54.6015 130.759 52.6543 131.667 50.4714 131.796C44.4531 132.151 44.9056 125.184 44.8895 121.053L44.8262 115.44L44.6319 96.6572C44.5344 89.7834 44.472 82.9026 44.3979 76.0279L44.3547 70.2856C44.3459 69.2648 44.3195 68.2202 44.3391 67.2005C44.3548 66.9781 44.3388 66.8262 44.5251 66.6739C48.2604 63.6194 53.3377 60.6574 58.1817 60.5545Z" fill="#F9F5FF"/>
<path d="M100.866 34.1933C97.1241 35.6129 93.375 37.0131 89.619 38.394L72.3194 44.8313L64.6316 47.6936C63.3011 48.189 61.7341 48.7195 60.4616 49.3193C59.4273 49.8663 58.6412 50.4822 58.1033 51.5564C57.9033 51.9561 57.8469 53.287 57.7384 53.3489C54.0549 55.4482 50.6293 57.342 47.7086 60.574C46.9763 61.3949 46.3341 62.2938 45.7934 63.2551C45.5467 63.6919 45.1751 64.8287 44.9123 64.9795C44.6635 65.0326 44.332 64.9955 44.3065 64.6703C44.222 63.5534 44.3153 62.3925 44.2639 61.2788C44.0864 57.4341 44.308 53.5862 46.7498 50.4276C48.8413 47.7221 51.4157 46.7863 54.4731 45.6635L58.4135 44.1991L72.3038 39.0346L92.2213 31.6186L98.3806 29.3268C101.472 28.1811 106.845 25.8304 109.894 28.1689C112.14 29.9717 112.129 33.0085 112.304 35.595C112.53 38.9417 111.765 41.4442 109.72 44.0901C107.476 46.9942 104.048 48.2534 100.761 49.5341C98.1185 50.5397 95.4703 51.5307 92.8169 52.5071L90.0389 53.5475C89.5519 53.7299 88.1033 54.3499 87.6592 54.2015C87.3187 53.874 87.7092 53.0118 87.8724 52.646C89.2532 49.5511 91.6119 46.1945 94.1925 44.0002C94.1907 43.9995 93.4708 44.0132 93.3746 44.0089C93.3879 43.8053 93.3987 43.5106 93.4264 43.3165C94.1741 42.5017 94.9389 41.7033 95.7203 40.9216C95.99 40.6503 96.7673 39.9024 96.9763 39.628C97.0644 39.572 97.5679 39.109 97.6772 39.0115C97.2774 39.2364 96.9151 39.3599 96.487 39.5205C96.0684 39.6838 94.9086 40.226 94.5411 39.9879C94.4773 39.8486 94.4727 39.6119 94.5117 39.4605C94.6479 38.9314 100.308 34.9689 101.14 34.4006C101.482 34.1398 101.911 33.9263 102.225 33.6482C101.743 33.8601 101.362 34.024 100.866 34.1933Z" fill="#F9F5FF"/>
<path d="M68.5955 47.4771C68.753 47.49 68.7884 47.5347 68.8671 47.6545C68.8941 48.293 67.9762 48.8641 67.5319 49.243C65.6746 50.827 62.1293 54.1626 59.5136 52.6783C59.1267 52.329 58.5725 51.7129 58.831 51.149C59.1712 50.9071 60.0104 50.6136 60.4236 50.4552L62.8363 49.5337C63.927 49.1177 67.6371 47.5575 68.5955 47.4771Z" fill="#F9F5FF"/>
</g>
<defs>
<linearGradient id="paint0_linear_663_1462" x1="160" y1="160" x2="32.4836" y2="45.9854" gradientUnits="userSpaceOnUse">
<stop stop-color="#3A1776"/>
<stop offset="1" stop-color="#1D0841"/>
</linearGradient>
<clipPath id="clip0_663_1462">
<rect width="71" height="105" fill="white" transform="translate(44 27)"/>
</clipPath>
</defs>
</svg>
