<svg width="316" height="413" viewBox="0 0 316 413" fill="none" xmlns="http://www.w3.org/2000/svg">
<path d="M314.269 380.619C316.252 371.837 282.516 335.174 265.401 317.941L239.251 367.613C238.662 369.161 240.808 371.488 253.893 379.445C259.398 382.793 271.611 381.84 272.32 376.687C275.02 378.509 278.073 380.38 281.466 382.201C294.318 389.096 297.121 381.398 296.916 376.687C305.492 382.239 313.17 385.487 314.269 380.619Z" fill="#AD87FF"/>
<path d="M272.32 376.687C271.611 381.84 259.398 382.793 253.893 379.445C240.808 371.488 238.662 369.161 239.251 367.613L265.401 317.941C282.516 335.174 316.252 371.837 314.269 380.619C313.17 385.487 305.492 382.239 296.916 376.687C290.02 372.224 282.544 366.271 277.441 361.851M258.259 364.74C260.011 366.909 264.793 371.608 272.32 376.687C275.02 378.509 278.073 380.38 281.466 382.201C294.318 389.096 297.121 381.398 296.916 376.687" stroke="#874FFE" stroke-width="3"/>
<path d="M38.1413 387.079C37.0611 380.167 57.7958 372.68 68.2982 369.8L100.532 372.925C100.532 372.925 105.284 381.678 103.389 387.079C100.512 395.277 81.724 400.526 81.724 400.526C78.629 401.44 71.4866 401.33 71.4866 395.042C62.2017 400.892 51.9445 395.718 48.9438 393.645C45.7931 394.336 39.2216 393.991 38.1413 387.079Z" fill="#C4A9FF" stroke="#AD87FF" stroke-width="3"/>
<path d="M77.8389 389.66C75.1995 392.002 69.5337 396.712 67.9852 396.82M57.8894 387.099C52.9233 390.824 48.5346 392.243 50.3825 394.459" stroke="#AD87FF" stroke-width="3"/>
<path d="M174.55 397.676C171.6 391.073 188.941 379.059 197.981 373.877L229.077 369.818C229.077 369.818 235.987 377.43 235.723 383.197C235.324 391.952 219.18 401.318 219.18 401.318C216.535 402.909 209.808 404.386 208.045 398.16C200.98 406.012 189.913 403.166 186.518 401.779C183.758 403.163 177.5 404.279 174.55 397.676Z" fill="#C4A9FF" stroke="#AD87FF" stroke-width="3"/>
<path d="M212.493 391.422C210.674 394.326 206.683 400.247 205.261 400.697M193.071 393.314C189.459 398.103 185.742 400.482 188.096 402.266" stroke="#AD87FF" stroke-width="3"/>
<path d="M246.598 370.011C223.573 391.759 183.658 385.118 146.407 383.021C103.805 380.622 71.01 391.092 39.7692 362.029C3.57423 328.357 22.9759 237.339 22.9759 237.339L276.135 226.843C276.135 226.843 283.631 324.714 246.598 370.011Z" fill="#F9F5FF" stroke="#C4A9FF" stroke-width="3.5"/>
<path d="M72.6033 249.302C72.1101 249.124 71.8486 249.026 71.8486 249.026M287.707 197.827C287.707 197.827 287.714 197.845 287.728 197.88" stroke="black" stroke-width="3"/>
<path d="M16.7913 211.974C16.7913 211.974 16.7717 211.885 16.7344 211.712M287.728 197.88C287.77 198.322 287.79 198.552 287.79 198.552" stroke="black" stroke-width="3"/>
<path d="M17.0409 211.063C17.0409 211.063 16.9285 211.292 16.7344 211.712M72.6033 249.302C73.094 248.866 73.3626 248.611 73.3626 248.611" stroke="black" stroke-width="3"/>
<path fill-rule="evenodd" clip-rule="evenodd" d="M287.729 197.88C289.284 202.027 297.509 222.382 287.582 230.767C277.672 239.137 252.135 225.317 252.135 225.317C252.135 225.317 245.194 239.686 236.604 242.698C227.647 245.838 212.742 238.088 212.742 238.088C212.742 238.088 166.384 262.522 134.224 262.941C112.058 263.23 78.0739 251.281 72.6037 249.302C69.3373 252.204 56.2334 263.105 47.0497 259.912C39.2199 257.19 33.171 243.851 33.171 243.851C33.171 243.851 21.1156 246.646 15.2012 242.848C5.73822 236.773 14.8976 215.687 16.7348 211.712C15.4805 205.896 -5.80465 104.828 22.4906 71.3038C65.2468 5.11082 199.784 17.6022 233.261 49.6886C252.304 67.9413 257.614 78.7631 267.877 115.649C278.14 152.534 286.173 193.732 287.729 197.88Z" fill="#F9F5FF" stroke="#C4A9FF" stroke-width="5"/>
<path d="M52.1152 113.289C53.466 113.104 55.9269 112.86 60.4251 111.321C61.7093 110.882 65.1601 109.54 69.9386 107.352C72.467 105.705 73.4496 104.722 74.3164 103.548C74.5024 103.299 74.6856 103.116 75.2444 102.927" stroke="#C4A9FF" stroke-width="3.5" stroke-linecap="round"/>
<path d="M47.9087 350.033C36.6932 348.674 30.7031 340.829 30.4907 336.864L79.7708 321.782C79.7708 321.782 86.0146 321.218 86.7805 326.88C84.2315 344.298 61.928 351.733 47.9087 350.033Z" fill="#F9F5FF"/>
<path d="M11.2109 329.498C-13.8264 298.883 18.6339 260.988 19.616 259.856L59.6807 263.019C59.6807 263.019 71.579 250.655 84.5258 246.951C103.045 241.654 133.595 239.819 131.289 258.487C129.705 271.314 117.152 278.487 105.913 279.732L107.529 280.112C107.529 280.112 118.352 292.29 96.4329 316.675C95.1108 318.009 93.7054 318.941 92.2527 319.547L92.3977 319.666C92.3977 319.666 74.9437 341.007 60.3725 343.264C38.0196 346.725 23.2906 329.498 23.2906 329.498C23.2906 329.498 17.0829 333.907 11.2109 329.498Z" fill="#F9F5FF"/>
<path d="M19.6386 259.83C19.6386 259.83 -14.2087 298.415 11.2109 329.498C17.0829 333.907 23.2906 329.498 23.2906 329.498C23.2906 329.498 38.0196 346.725 60.3725 343.264C74.9437 341.007 92.3977 319.666 92.3977 319.666L92.2527 319.547C93.7054 318.941 95.1108 318.009 96.4329 316.675C118.352 292.29 107.529 280.112 107.529 280.112L105.913 279.732C117.152 278.487 129.705 271.314 131.289 258.487C133.595 239.819 103.045 241.654 84.5258 246.951C71.579 250.655 59.6807 263.019 59.6807 263.019L19.2864 259.83" stroke="#C4A9FF" stroke-width="3.5"/>
<path d="M19.061 323.455C20.6229 326.153 24.377 331.361 25.8764 331.634" stroke="#C4A9FF" stroke-width="3"/>
<path d="M86.812 279.189C95.9667 280.679 111.006 279.983 115.72 277.219" stroke="#C4A9FF" stroke-width="3"/>
<path d="M73.5107 317.941C79.016 322.627 85.8224 321.544 91.3914 320.125" stroke="#C4A9FF" stroke-width="3"/>
<path d="M20.1162 262.154L22.0369 255.157L42.0402 259.997L59.0122 261.441L62.9202 268.053L20.1162 262.154Z" fill="#F9F5FF"/>
<path d="M193.096 307.811C195.973 326.071 203.634 332.105 217.497 334.085C233.525 336.375 241.218 329.307 254.133 321.949C272.887 311.266 283.493 294.651 283.225 292.315L201.23 311.77C201.23 311.77 196.422 309.002 193.096 307.811Z" fill="#F9F5FF"/>
<path d="M206.907 324.039C223.659 336.791 259.354 311.56 259.354 311.56C259.354 311.56 271.9 307.117 279.686 297.306C287.131 287.924 290.228 281.087 291.985 269.328C292.602 255.997 287.932 247.083 280.599 237.109C269.502 231.003 248.474 241.567 248.474 241.567L220.24 250.485C220.24 250.485 202.171 238.9 188.824 237.109C169.734 234.546 132.822 243.812 137.804 261.95C141.228 274.413 154.622 274.821 165.923 274.427C165.923 274.427 167.128 311.084 196.066 310.228C196.066 310.228 201.451 319.886 206.907 324.039Z" fill="#F9F5FF" stroke="#C4A9FF" stroke-width="3.5"/>
<path d="M186.645 270.735C177.803 273.534 157.126 275.751 152.062 273.698" stroke="#C4A9FF" stroke-width="3"/>
<path d="M206.289 304.866C201.519 310.3 194.628 310.213 188.912 309.614" stroke="#C4A9FF" stroke-width="3"/>
<path d="M220.387 254.645V247.8L240.257 242.694L265.192 232.136L278.401 233.616L279.246 239.322L220.387 254.645Z" fill="#F9F5FF"/>
<path d="M101.799 56.4734C98.1065 50.813 112.705 43.0361 112.705 43.0361C112.705 43.0361 96.3336 35.2272 91.8672 26.0934C88.4256 19.0554 88.6604 7.23704 88.8594 3.17327C88.8934 2.47933 89.6057 2.05365 90.238 2.34173C94.2636 4.17596 106.838 9.84377 115.651 13.135C122.774 15.9975 138.291 24.7892 145.64 25.2685L112.705 59.9788C112.705 59.9788 104.243 60.2202 101.799 56.4734Z" fill="#F9F5FF"/>
<path d="M112.705 43.0361C112.705 43.0361 98.1065 50.813 101.799 56.4734C104.243 60.2202 112.705 59.9788 112.705 59.9788L145.64 25.2685C138.291 24.7892 122.774 15.9975 115.651 13.135C106.838 9.84377 94.2636 4.17596 90.238 2.34173C89.6057 2.05365 88.8934 2.47933 88.8594 3.17327C88.6604 7.23704 88.4256 19.0554 91.8672 26.0934C96.3336 35.2272 112.705 43.0361 112.705 43.0361ZM112.705 43.0361L117.712 40.3821" stroke="#C4A9FF" stroke-width="4.5" stroke-linecap="round"/>
<path d="M101.799 56.4734L99.9144 57.7027V57.7027L101.799 56.4734ZM88.5981 4.34028L86.3596 4.11347L88.5981 4.34028ZM94.7057 29.8322L96.5396 28.5286L96.4738 28.436L96.399 28.3506L94.7057 29.8322ZM118.765 42.3701C119.863 41.7882 120.282 40.4264 119.7 39.3284C119.118 38.2305 117.756 37.8122 116.658 38.3941L117.712 40.3821L118.765 42.3701ZM111.3 11.9212L110.458 14.0075V14.0075L111.3 11.9212ZM91.3024 2.88958L92.2762 0.861224V0.861224L91.3024 2.88958ZM112.705 43.0361C111.647 41.0503 111.646 41.0505 111.646 41.0508C111.645 41.0509 111.645 41.0512 111.644 41.0515C111.643 41.052 111.642 41.0526 111.641 41.0534C111.638 41.0549 111.634 41.0569 111.63 41.0594C111.62 41.0643 111.608 41.0711 111.592 41.0798C111.56 41.0971 111.514 41.1218 111.457 41.1536C111.341 41.2171 111.176 41.3091 110.969 41.4272C110.556 41.663 109.975 42.0039 109.291 42.4305C107.931 43.2786 106.129 44.4878 104.428 45.9023C102.761 47.2891 101.03 49.0037 99.9793 50.8911C98.8992 52.8307 98.3667 55.3302 99.9144 57.7027L101.799 56.4734L103.683 55.2441C103.385 54.7864 103.292 54.1912 103.911 53.0805C104.558 51.9178 105.785 50.6269 107.306 49.3619C108.793 48.1246 110.41 47.0357 111.672 46.2488C112.299 45.8578 112.829 45.547 113.2 45.3354C113.385 45.2297 113.53 45.1492 113.626 45.096C113.674 45.0695 113.711 45.0498 113.734 45.0374C113.745 45.0311 113.753 45.0267 113.758 45.0241C113.761 45.0228 113.762 45.022 113.763 45.0216C113.763 45.0214 113.763 45.0213 113.763 45.0214C113.763 45.0214 113.763 45.0215 113.763 45.0215C113.763 45.0217 113.762 45.0219 112.705 43.0361ZM101.799 56.4734L99.9144 57.7027C100.852 59.1392 102.268 60.0581 103.622 60.6586C104.992 61.2661 106.478 61.628 107.794 61.8498C109.122 62.0736 110.353 62.1672 111.247 62.2059C111.697 62.2253 112.067 62.231 112.329 62.2318C112.461 62.2322 112.565 62.2314 112.64 62.2304C112.677 62.2299 112.706 62.2293 112.728 62.2289C112.739 62.2286 112.748 62.2284 112.754 62.2282C112.758 62.2282 112.761 62.2281 112.763 62.228C112.764 62.228 112.765 62.228 112.766 62.2279C112.767 62.2279 112.767 62.2279 112.768 62.2279C112.768 62.2279 112.769 62.2279 112.705 59.9788C112.64 57.7297 112.641 57.7297 112.641 57.7297C112.641 57.7297 112.642 57.7297 112.642 57.7297C112.642 57.7296 112.643 57.7296 112.643 57.7296C112.643 57.7296 112.643 57.7296 112.642 57.7296C112.641 57.7297 112.638 57.7298 112.632 57.7299C112.622 57.7301 112.604 57.7304 112.578 57.7308C112.527 57.7315 112.448 57.7322 112.343 57.7318C112.133 57.7312 111.823 57.7266 111.441 57.71C110.672 57.6768 109.635 57.5967 108.542 57.4124C107.438 57.2262 106.35 56.946 105.446 56.545C104.526 56.1369 103.968 55.681 103.683 55.2441L101.799 56.4734ZM88.5981 4.34028L86.3596 4.11347C86.0803 6.86967 85.8511 11.4556 86.6123 16.4241C87.3714 21.3787 89.1432 26.8919 93.0124 31.3139L94.7057 29.8322L96.399 28.3506C93.2964 24.8047 91.7462 20.2186 91.0604 15.7426C90.3767 11.2804 90.5796 7.10435 90.8367 4.56709L88.5981 4.34028ZM94.7057 29.8322L92.8719 31.1359C95.6726 35.0756 100.503 38.5718 104.408 41.0077C106.399 42.2492 108.224 43.2604 109.552 43.9617C110.217 44.3128 110.759 44.5874 111.138 44.7755C111.327 44.8696 111.476 44.9421 111.579 44.9919C111.631 45.0167 111.671 45.0359 111.699 45.0493C111.713 45.0559 111.724 45.0611 111.732 45.0649C111.735 45.0667 111.739 45.0682 111.741 45.0693C111.742 45.0699 111.743 45.0704 111.744 45.0707C111.744 45.0709 111.745 45.0711 111.745 45.0712C111.745 45.0714 111.746 45.0716 112.705 43.0361C113.663 41.0006 113.664 41.0007 113.664 41.0008C113.664 41.0008 113.664 41.0009 113.664 41.0009C113.664 41.0009 113.664 41.0008 113.663 41.0006C113.663 41.0002 113.661 40.9995 113.659 40.9984C113.654 40.9962 113.646 40.9925 113.636 40.9875C113.614 40.9773 113.581 40.9613 113.537 40.9398C113.447 40.8968 113.313 40.8313 113.139 40.7448C112.79 40.5716 112.281 40.3142 111.653 39.9826C110.396 39.3183 108.668 38.3608 106.79 37.1895C102.959 34.7997 98.7898 31.694 96.5396 28.5286L94.7057 29.8322ZM112.705 43.0361L113.758 45.0241L118.765 42.3701L117.712 40.3821L116.658 38.3941L111.651 41.048L112.705 43.0361ZM111.3 11.9212L112.143 9.83482C105.607 7.19601 96.5336 2.90515 92.2762 0.861224L91.3024 2.88958L90.3286 4.91793C94.5793 6.95865 103.773 11.3082 110.458 14.0075L111.3 11.9212ZM111.3 11.9212L110.458 14.0075C123.712 19.3594 135.08 24.8316 146.502 25.82L146.696 23.5784L146.89 21.3368C136.341 20.4239 125.878 15.3808 112.143 9.83482L111.3 11.9212ZM88.5981 4.34028L90.8367 4.56709C90.8319 4.61457 90.811 4.68517 90.7625 4.75555C90.7166 4.82213 90.6599 4.86867 90.6054 4.89751C90.494 4.9564 90.3855 4.94524 90.3286 4.91793L91.3024 2.88958L92.2762 0.861224C89.7987 -0.328195 86.6628 1.12078 86.3596 4.11347L88.5981 4.34028Z" fill="#C4A9FF"/>
<path d="M149.135 203.102C148.199 190.804 140.408 180.107 128.109 181.024C118.229 181.76 113.103 189.142 109.652 198.429C107.199 218.521 119.932 233.824 119.932 233.824C119.932 233.824 119.978 229.157 124.604 226.231C136.052 226.231 149.927 213.494 149.135 203.102Z" fill="#F9F5FF"/>
<path d="M109.808 203.728L111.303 203.857L111.308 203.793V203.728H109.808ZM148.756 203.728L150.242 203.935L150.256 203.832V203.728H148.756ZM120.229 233.127L119.201 234.219L121.359 236.251L121.718 233.309L120.229 233.127ZM127.697 218.445L126.546 217.482V217.482L127.697 218.445ZM139.89 212.417C140.685 212.183 141.14 211.35 140.907 210.555C140.674 209.76 139.84 209.305 139.046 209.538L139.468 210.977L139.89 212.417ZM141.493 219.331L142.531 220.413V220.413L141.493 219.331ZM109.808 203.728H111.308C111.308 191.348 119.532 182.67 129.282 182.67V181.17V179.67C117.522 179.67 108.308 190.069 108.308 203.728H109.808ZM129.282 181.17V182.67C139.009 182.67 147.256 191.884 147.256 203.728H148.756H150.256C150.256 190.656 141.065 179.67 129.282 179.67V181.17ZM109.808 203.728C108.314 203.6 108.314 203.6 108.314 203.601C108.314 203.601 108.313 203.602 108.313 203.602C108.313 203.604 108.313 203.605 108.313 203.607C108.313 203.611 108.312 203.615 108.312 203.621C108.311 203.633 108.31 203.649 108.308 203.669C108.305 203.709 108.301 203.767 108.296 203.841C108.287 203.988 108.276 204.201 108.265 204.473C108.245 205.017 108.23 205.799 108.251 206.768C108.294 208.706 108.478 211.407 109.05 214.473C110.19 220.586 112.891 228.281 119.201 234.219L120.229 233.127L121.257 232.035C115.583 226.694 113.074 219.69 111.999 213.923C111.464 211.05 111.29 208.516 111.251 206.703C111.231 205.798 111.245 205.076 111.263 204.585C111.272 204.34 111.283 204.152 111.291 204.029C111.294 203.967 111.298 203.922 111.3 203.893C111.301 203.878 111.302 203.868 111.302 203.862C111.302 203.859 111.303 203.857 111.303 203.857C111.303 203.856 111.303 203.856 111.303 203.856C111.303 203.856 111.303 203.857 111.303 203.857C111.303 203.857 111.303 203.857 109.808 203.728ZM120.229 233.127C121.718 233.309 121.718 233.309 121.718 233.31C121.718 233.31 121.718 233.31 121.718 233.311C121.718 233.311 121.718 233.312 121.718 233.312C121.718 233.313 121.717 233.313 121.717 233.313C121.717 233.313 121.718 233.312 121.718 233.309C121.719 233.302 121.721 233.289 121.724 233.27C121.729 233.233 121.739 233.17 121.754 233.084C121.785 232.912 121.837 232.647 121.92 232.299C122.087 231.603 122.378 230.577 122.87 229.305C123.853 226.764 125.641 223.239 128.847 219.408L127.697 218.445L126.546 217.482C123.108 221.592 121.161 225.408 120.072 228.223C119.528 229.629 119.198 230.785 119.003 231.601C118.905 232.009 118.841 232.332 118.801 232.56C118.78 232.674 118.766 232.764 118.756 232.828C118.752 232.861 118.748 232.887 118.745 232.906C118.744 232.916 118.743 232.924 118.742 232.931C118.742 232.934 118.741 232.937 118.741 232.939C118.741 232.941 118.741 232.942 118.74 232.943C118.74 232.943 118.74 232.944 118.74 232.944C118.74 232.945 118.74 232.945 120.229 233.127ZM127.697 218.445L128.847 219.408C130.891 216.966 133.634 215.21 135.927 214.056C137.064 213.483 138.067 213.069 138.783 212.8C139.14 212.665 139.425 212.567 139.616 212.504C139.711 212.472 139.784 212.449 139.83 212.435C139.854 212.428 139.87 212.423 139.881 212.419C139.886 212.418 139.889 212.417 139.89 212.417C139.891 212.416 139.892 212.416 139.892 212.416C139.892 212.416 139.891 212.416 139.891 212.416C139.891 212.416 139.891 212.416 139.891 212.416C139.89 212.417 139.89 212.417 139.468 210.977C139.046 209.538 139.045 209.538 139.045 209.538C139.045 209.538 139.044 209.538 139.044 209.538C139.043 209.539 139.042 209.539 139.041 209.539C139.039 209.54 139.037 209.54 139.034 209.541C139.029 209.543 139.022 209.545 139.013 209.548C138.995 209.553 138.97 209.561 138.939 209.57C138.876 209.59 138.787 209.618 138.673 209.656C138.447 209.731 138.125 209.842 137.726 209.992C136.931 210.292 135.826 210.747 134.577 211.376C132.097 212.625 128.955 214.604 126.546 217.482L127.697 218.445ZM148.756 203.728C147.27 203.522 147.27 203.521 147.27 203.521C147.27 203.521 147.27 203.521 147.27 203.521C147.27 203.52 147.27 203.52 147.27 203.52C147.27 203.521 147.27 203.521 147.27 203.523C147.27 203.526 147.269 203.531 147.268 203.538C147.266 203.553 147.262 203.578 147.257 203.611C147.247 203.677 147.23 203.778 147.207 203.91C147.161 204.175 147.088 204.566 146.981 205.056C146.769 206.036 146.426 207.402 145.907 208.936C144.858 212.036 143.139 215.673 140.455 218.248L141.493 219.331L142.531 220.413C145.721 217.353 147.634 213.189 148.748 209.897C149.311 208.235 149.682 206.757 149.913 205.692C150.029 205.159 150.11 204.727 150.163 204.425C150.189 204.274 150.208 204.156 150.221 204.073C150.227 204.032 150.232 203.999 150.236 203.976C150.237 203.965 150.239 203.955 150.24 203.949C150.24 203.945 150.241 203.942 150.241 203.94C150.241 203.939 150.241 203.938 150.241 203.937C150.241 203.937 150.241 203.936 150.242 203.936C150.242 203.936 150.242 203.935 148.756 203.728ZM141.493 219.331L140.455 218.248C137.472 221.11 133.03 222.801 129.178 223.767C127.277 224.244 125.57 224.533 124.34 224.701C123.726 224.785 123.233 224.84 122.897 224.872C122.729 224.889 122.6 224.9 122.515 224.907C122.473 224.91 122.441 224.912 122.421 224.914C122.411 224.915 122.404 224.915 122.4 224.915C122.398 224.916 122.397 224.916 122.396 224.916C122.396 224.916 122.396 224.916 122.396 224.916C122.396 224.916 122.396 224.916 122.396 224.916C122.396 224.916 122.396 224.916 122.494 226.412C122.592 227.909 122.592 227.909 122.593 227.909C122.593 227.909 122.593 227.909 122.594 227.909C122.595 227.909 122.596 227.909 122.597 227.909C122.599 227.909 122.602 227.909 122.606 227.908C122.614 227.908 122.625 227.907 122.639 227.906C122.667 227.904 122.706 227.901 122.756 227.897C122.857 227.889 123.003 227.876 123.188 227.858C123.559 227.822 124.091 227.763 124.748 227.673C126.059 227.494 127.877 227.187 129.908 226.677C133.922 225.67 138.98 223.82 142.531 220.413L141.493 219.331Z" fill="#C4A9FF"/>
<ellipse cx="179.436" cy="145.961" rx="40.9508" ry="37.9598" fill="#F9F5FF"/>
<ellipse cx="176.561" cy="142.242" rx="41.4216" ry="39.8557" fill="#874FFE"/>
<path d="M181.326 111.745C193.353 120.134 190.332 138.329 179.701 148.311C169.57 157.822 152.86 160.7 143.527 150.462C136.5 142.753 140.139 124.577 151.288 115.852C160.48 108.659 171.995 105.237 181.326 111.745Z" fill="white"/>
<path d="M197.352 164.88C193.324 169.71 185.083 171.101 181.263 168.32C177.442 165.539 178.774 157.471 182.299 152.988C185.823 148.505 193.531 146.236 197.352 149.017C201.172 151.798 201.381 160.048 197.352 164.88Z" fill="white"/>
<ellipse cx="69.1521" cy="162.274" rx="40.9275" ry="40.7323" fill="#F9F5FF"/>
<ellipse cx="69.6462" cy="160.147" rx="41.4216" ry="39.8557" fill="#874FFE"/>
<path d="M74.4117 129.65C86.4386 138.039 83.4178 156.234 72.786 166.216C62.6559 175.726 45.9457 178.605 36.6127 168.367C29.5851 160.657 33.2249 142.481 44.3733 133.757C53.5654 126.563 65.0809 123.142 74.4117 129.65Z" fill="white"/>
<path d="M90.4372 182.784C86.4091 187.615 78.1687 189.006 74.348 186.225C70.5273 183.444 71.8597 175.376 75.3841 170.893C78.9085 166.41 86.6165 164.14 90.4372 166.921C94.2579 169.702 94.4664 177.953 90.4372 182.784Z" fill="white"/>
<path d="M139.077 92.8237C140.73 93.4605 143.939 95.6024 148.222 97.1067C149.671 97.6156 151.687 97.6961 153.892 97.8328C158.486 97.9695 161.264 97.8633 162.251 97.5964C162.919 97.4356 163.927 97.2233 165.448 96.8438" stroke="#C4A9FF" stroke-width="3.5" stroke-linecap="round"/>
</svg>
