<svg width="316" height="412" viewBox="0 0 316 412" fill="none" xmlns="http://www.w3.org/2000/svg">
<path d="M314.269 380.174C316.252 371.392 282.516 334.729 265.401 317.495L239.251 367.168C238.662 368.715 240.808 371.042 253.893 378.999C259.398 382.347 271.611 381.395 272.32 376.242C275.02 378.064 278.073 379.935 281.466 381.755C294.318 388.651 297.121 380.953 296.916 376.242C305.492 381.793 313.17 385.041 314.269 380.174Z" fill="#9E572B"/>
<path d="M272.32 376.242C271.611 381.395 259.398 382.347 253.893 378.999C240.808 371.042 238.662 368.715 239.251 367.168L265.401 317.495C282.516 334.729 316.252 371.392 314.269 380.174C313.17 385.041 305.492 381.793 296.916 376.242C290.02 371.778 282.544 365.825 277.441 361.406M258.259 364.295C260.011 366.463 264.793 371.163 272.32 376.242C275.02 378.064 278.073 379.935 281.466 381.755C294.318 388.651 297.121 380.953 296.916 376.242" stroke="#6C381A" stroke-width="3"/>
<path d="M38.1413 386.633C37.0611 379.722 57.7958 372.234 68.2982 369.354L100.532 372.479C100.532 372.479 105.284 381.232 103.389 386.633C100.512 394.831 81.724 400.08 81.724 400.08C78.629 400.994 71.4866 400.885 71.4866 394.597C62.2017 400.446 51.9445 395.273 48.9438 393.199C45.7931 393.891 39.2216 393.545 38.1413 386.633Z" fill="#FC9E08" stroke="#E28502" stroke-width="3"/>
<path d="M77.8389 389.214C75.1995 391.556 69.5337 396.266 67.9852 396.374M57.8894 386.654C52.9233 390.378 48.5346 391.797 50.3825 394.014" stroke="#E28502" stroke-width="3"/>
<path d="M174.55 397.23C171.6 390.627 188.941 378.613 197.981 373.432L229.077 369.372C229.077 369.372 235.987 376.984 235.723 382.752C235.324 391.507 219.18 400.872 219.18 400.872C216.535 402.464 209.808 403.94 208.045 397.715C200.98 405.566 189.913 402.721 186.518 401.334C183.758 402.717 177.5 403.833 174.55 397.23Z" fill="#FC9E08" stroke="#E28502" stroke-width="3"/>
<path d="M212.493 390.976C210.674 393.881 206.683 399.801 205.261 400.252M193.071 392.868C189.459 397.657 185.742 400.036 188.096 401.821" stroke="#E28502" stroke-width="3"/>
<path d="M246.598 369.566C223.573 391.314 183.658 384.673 146.407 382.575C103.805 380.177 71.01 390.646 39.7692 361.584C3.57423 327.912 22.9759 236.893 22.9759 236.893L276.135 226.398C276.135 226.398 283.631 324.269 246.598 369.566Z" fill="url(#paint0_radial_655_1449)" stroke="#6C381A" stroke-width="3.5"/>
<path d="M72.6033 248.857C72.1101 248.678 71.8486 248.581 71.8486 248.581M287.707 197.381C287.707 197.381 287.714 197.399 287.728 197.434" stroke="black" stroke-width="3"/>
<path d="M16.7913 211.528C16.7913 211.528 16.7717 211.439 16.7344 211.266M287.728 197.434C287.77 197.876 287.79 198.106 287.79 198.106" stroke="black" stroke-width="3"/>
<path d="M17.0409 210.617C17.0409 210.617 16.9285 210.846 16.7344 211.266M72.6033 248.857C73.094 248.421 73.3626 248.165 73.3626 248.165" stroke="black" stroke-width="3"/>
<path fill-rule="evenodd" clip-rule="evenodd" d="M287.729 197.434C289.284 201.582 297.509 221.937 287.582 230.321C277.672 238.691 252.135 224.871 252.135 224.871C252.135 224.871 245.194 239.241 236.604 242.252C227.647 245.392 212.742 237.643 212.742 237.643C212.742 237.643 166.384 262.077 134.224 262.496C112.058 262.785 78.0739 250.835 72.6037 248.857C69.3373 251.759 56.2334 262.66 47.0497 259.467C39.2199 256.744 33.171 243.406 33.171 243.406C33.171 243.406 21.1156 246.2 15.2012 242.403C5.73822 236.327 14.8976 215.241 16.7348 211.266C15.4805 205.451 -5.80465 104.382 22.4906 70.8582C65.2468 4.66527 199.784 17.1567 233.261 49.2431C252.304 67.4957 257.614 78.3175 267.877 115.203C278.14 152.089 286.173 193.287 287.729 197.434Z" fill="url(#paint1_radial_655_1449)" stroke="#967153" stroke-width="5"/>
<path d="M52.1152 112.844C53.466 112.659 55.9269 112.414 60.4251 110.876C61.7093 110.437 65.1601 109.095 69.9386 106.907C72.467 105.259 73.4496 104.277 74.3164 103.103C74.5024 102.854 74.6856 102.67 75.2444 102.482" stroke="#3D2614" stroke-width="3.5" stroke-linecap="round"/>
<path d="M47.9087 349.588C36.6932 348.228 30.7031 340.383 30.4907 336.418L79.7708 321.337C79.7708 321.337 86.0146 320.772 86.7805 326.435C84.2315 343.853 61.928 351.287 47.9087 349.588Z" fill="#8D471C"/>
<path d="M11.2109 329.053C-13.8264 298.437 18.6339 260.543 19.616 259.41L59.6807 262.574C59.6807 262.574 71.579 250.209 84.5258 246.506C103.045 241.208 133.595 239.373 131.289 258.041C129.705 270.868 117.152 278.041 105.913 279.287L107.529 279.666C107.529 279.666 118.352 291.845 96.4329 316.229C95.1108 317.563 93.7054 318.496 92.2527 319.101L92.3977 319.22C92.3977 319.22 74.9437 340.561 60.3725 342.818C38.0196 346.28 23.2906 329.053 23.2906 329.053C23.2906 329.053 17.0829 333.462 11.2109 329.053Z" fill="#9E572B"/>
<path d="M19.6386 259.384C19.6386 259.384 -14.2087 297.97 11.2109 329.053C17.0829 333.462 23.2906 329.053 23.2906 329.053C23.2906 329.053 38.0196 346.28 60.3725 342.818C74.9437 340.561 92.3977 319.22 92.3977 319.22L92.2527 319.101C93.7054 318.496 95.1108 317.563 96.4329 316.229C118.352 291.845 107.529 279.666 107.529 279.666L105.913 279.287C117.152 278.041 129.705 270.868 131.289 258.041C133.595 239.373 103.045 241.208 84.5258 246.506C71.579 250.209 59.6807 262.574 59.6807 262.574L19.2864 259.384" stroke="#6C381A" stroke-width="3.5"/>
<path d="M19.061 323.01C20.6229 325.708 24.377 330.916 25.8764 331.188" stroke="#6C381A" stroke-width="3"/>
<path d="M86.812 278.743C95.9667 280.234 111.006 279.538 115.72 276.773" stroke="#6C381A" stroke-width="3"/>
<path d="M73.5107 317.495C79.016 322.181 85.8224 321.099 91.3914 319.679" stroke="#6C381A" stroke-width="3"/>
<path d="M20.1162 261.708L22.0369 254.711L42.0402 259.551L59.0122 260.995L62.9202 267.608L20.1162 261.708Z" fill="#9E572B"/>
<path d="M193.096 307.365C195.973 325.625 203.634 331.659 217.497 333.64C233.525 335.929 241.218 328.861 254.133 321.504C272.887 310.82 283.493 294.206 283.225 291.869L201.23 311.325C201.23 311.325 196.422 308.556 193.096 307.365Z" fill="#8D471C"/>
<path d="M206.907 323.593C223.659 336.346 259.354 311.115 259.354 311.115C259.354 311.115 271.9 306.672 279.686 296.86C287.131 287.478 290.228 280.641 291.985 268.883C292.602 255.552 287.932 246.638 280.599 236.663C269.502 230.558 248.474 241.122 248.474 241.122L220.24 250.039C220.24 250.039 202.171 238.455 188.824 236.663C169.734 234.101 132.822 243.367 137.804 261.505C141.228 273.968 154.622 274.375 165.923 273.982C165.923 273.982 167.128 310.638 196.066 309.782C196.066 309.782 201.451 319.44 206.907 323.593Z" fill="#9E572B" stroke="#6C381A" stroke-width="3.5"/>
<path d="M186.645 270.29C177.803 273.089 157.126 275.306 152.062 273.252" stroke="#6C381A" stroke-width="3"/>
<path d="M206.289 304.421C201.519 309.854 194.628 309.767 188.912 309.168" stroke="#6C381A" stroke-width="3"/>
<path d="M220.387 254.199V247.354L240.257 242.249L265.192 231.691L278.401 233.17L279.246 238.877L220.387 254.199Z" fill="#9E572B"/>
<path d="M101.799 56.0278C98.1065 50.3674 112.705 42.5905 112.705 42.5905C112.705 42.5905 96.3336 34.7817 91.8672 25.6478C88.4256 18.6099 88.6604 6.79148 88.8594 2.72772C88.8934 2.03377 89.6057 1.6081 90.238 1.89617C94.2636 3.73041 106.838 9.39821 115.651 12.6895C122.774 15.5519 138.291 24.3437 145.64 24.823L112.705 59.5332C112.705 59.5332 104.243 59.7746 101.799 56.0278Z" fill="#FEE3C5"/>
<path d="M101.799 56.0278L99.9144 57.2572V57.2572L101.799 56.0278ZM94.7057 29.3867L96.5396 28.083L96.4738 27.9905L96.399 27.905L94.7057 29.3867ZM118.765 41.9246C119.863 41.3427 120.282 39.9808 119.7 38.8829C119.118 37.7849 117.756 37.3666 116.658 37.9485L117.712 39.9366L118.765 41.9246ZM111.3 11.4756L112.143 9.38926L111.3 11.4756ZM112.705 42.5905C111.647 40.6047 111.646 40.605 111.646 40.6052C111.645 40.6054 111.645 40.6057 111.644 40.6059C111.643 40.6064 111.642 40.6071 111.641 40.6078C111.638 40.6094 111.634 40.6113 111.63 40.6138C111.62 40.6187 111.608 40.6255 111.592 40.6342C111.56 40.6515 111.514 40.6762 111.457 40.708C111.341 40.7716 111.176 40.8636 110.969 40.9816C110.556 41.2175 109.975 41.5584 109.291 41.9849C107.931 42.8331 106.129 44.0422 104.428 45.4567C102.761 46.8435 101.03 48.5582 99.9793 50.4456C98.8992 52.3851 98.3667 54.8847 99.9144 57.2572L101.799 56.0278L103.683 54.7985C103.385 54.3408 103.292 53.7456 103.911 52.635C104.558 51.4722 105.785 50.1813 107.306 48.9163C108.793 47.6791 110.41 46.5902 111.672 45.8033C112.299 45.4123 112.829 45.1014 113.2 44.8899C113.385 44.7842 113.53 44.7036 113.626 44.6505C113.674 44.6239 113.711 44.6043 113.734 44.5918C113.745 44.5856 113.753 44.5811 113.758 44.5785C113.761 44.5772 113.762 44.5764 113.763 44.576C113.763 44.5758 113.763 44.5758 113.763 44.5758C113.763 44.5758 113.763 44.576 113.763 44.576C113.763 44.5761 113.762 44.5763 112.705 42.5905ZM101.799 56.0278L99.9144 57.2572C100.852 58.6937 102.268 59.6125 103.622 60.213C104.992 60.8205 106.478 61.1825 107.794 61.4043C109.122 61.628 110.353 61.7217 111.247 61.7603C111.697 61.7797 112.067 61.7855 112.329 61.7863C112.461 61.7867 112.565 61.7858 112.64 61.7848C112.677 61.7843 112.706 61.7838 112.728 61.7833C112.739 61.7831 112.748 61.7829 112.754 61.7827C112.758 61.7826 112.761 61.7825 112.763 61.7825C112.764 61.7824 112.765 61.7824 112.766 61.7824C112.767 61.7824 112.767 61.7823 112.768 61.7823C112.768 61.7823 112.769 61.7823 112.705 59.5332C112.64 57.2841 112.641 57.2841 112.641 57.2841C112.641 57.2841 112.642 57.2841 112.642 57.2841C112.642 57.2841 112.643 57.2841 112.643 57.2841C112.643 57.2841 112.643 57.2841 112.642 57.2841C112.641 57.2841 112.638 57.2842 112.632 57.2843C112.622 57.2845 112.604 57.2849 112.578 57.2852C112.527 57.2859 112.448 57.2866 112.343 57.2863C112.133 57.2857 111.823 57.281 111.441 57.2645C110.672 57.2313 109.635 57.1511 108.542 56.9669C107.438 56.7807 106.35 56.5004 105.446 56.0994C104.526 55.6914 103.968 55.2354 103.683 54.7985L101.799 56.0278ZM88.5981 3.89472L86.3596 3.66791C86.0803 6.42411 85.8511 11.0101 86.6123 15.9785C87.3714 20.9332 89.1432 26.4463 93.0124 30.8683L94.7057 29.3867L96.399 27.905C93.2964 24.3591 91.7462 19.773 91.0604 15.297C90.3767 10.8349 90.5796 6.65879 90.8367 4.12153L88.5981 3.89472ZM94.7057 29.3867L92.8719 30.6903C95.6726 34.63 100.503 38.1263 104.408 40.5621C106.399 41.8036 108.224 42.8148 109.552 43.5161C110.217 43.8672 110.759 44.1418 111.138 44.33C111.327 44.424 111.476 44.4966 111.579 44.5463C111.631 44.5712 111.671 44.5904 111.699 44.6037C111.713 44.6104 111.724 44.6156 111.732 44.6193C111.735 44.6212 111.739 44.6227 111.741 44.6238C111.742 44.6243 111.743 44.6248 111.744 44.6252C111.744 44.6254 111.745 44.6256 111.745 44.6257C111.745 44.6259 111.746 44.626 112.705 42.5905C113.663 40.555 113.664 40.5551 113.664 40.5552C113.664 40.5552 113.664 40.5553 113.664 40.5553C113.664 40.5553 113.664 40.5552 113.663 40.555C113.663 40.5547 113.661 40.5539 113.659 40.5528C113.654 40.5506 113.646 40.547 113.636 40.5419C113.614 40.5317 113.581 40.5158 113.537 40.4943C113.447 40.4512 113.313 40.3858 113.139 40.2992C112.79 40.1261 112.281 39.8687 111.653 39.537C110.396 38.8728 108.668 37.9152 106.79 36.7439C102.959 34.3542 98.7898 31.2484 96.5396 28.083L94.7057 29.3867ZM112.705 42.5905L113.758 44.5785L118.765 41.9246L117.712 39.9366L116.658 37.9485L111.651 40.6025L112.705 42.5905ZM111.3 11.4756L112.143 9.38926C105.607 6.75045 96.5336 2.45959 92.2762 0.415667L91.3024 2.44402L90.3286 4.47238C94.5793 6.51309 103.773 10.8626 110.458 13.5619L111.3 11.4756ZM111.3 11.4756L110.458 13.5619C123.712 18.9139 135.08 24.386 146.502 25.3745L146.696 23.1328L146.89 20.8912C136.341 19.9783 125.878 14.9352 112.143 9.38926L111.3 11.4756ZM88.5981 3.89472L90.8367 4.12153C90.8319 4.16902 90.811 4.23962 90.7625 4.30999C90.7166 4.37658 90.6599 4.42311 90.6054 4.45195C90.494 4.51084 90.3855 4.49968 90.3286 4.47238L91.3024 2.44402L92.2762 0.415667C89.7987 -0.773752 86.6628 0.675224 86.3596 3.66791L88.5981 3.89472Z" fill="#967153"/>
<path d="M149.135 202.656C148.199 190.359 140.408 179.661 128.109 180.578C118.229 181.315 113.103 188.697 109.652 197.984C107.199 218.076 119.932 233.379 119.932 233.379C119.932 233.379 119.978 228.712 124.604 225.786C136.052 225.786 149.927 213.048 149.135 202.656Z" fill="#FFA100"/>
<path d="M109.808 203.283L111.303 203.412L111.308 203.347V203.283H109.808ZM148.756 203.283L150.242 203.49L150.256 203.387V203.283H148.756ZM120.229 232.681L119.201 233.774L121.359 235.805L121.718 232.863L120.229 232.681ZM127.697 217.999L126.546 217.037V217.037L127.697 217.999ZM139.89 211.971C140.685 211.738 141.14 210.904 140.907 210.109C140.674 209.314 139.84 208.859 139.046 209.092L139.468 210.532L139.89 211.971ZM141.493 218.885L142.531 219.968V219.968L141.493 218.885ZM109.808 203.283H111.308C111.308 190.903 119.532 182.225 129.282 182.225V180.725V179.225C117.522 179.225 108.308 189.623 108.308 203.283H109.808ZM129.282 180.725V182.225C139.009 182.225 147.256 191.438 147.256 203.283H148.756H150.256C150.256 190.211 141.065 179.225 129.282 179.225V180.725ZM109.808 203.283C108.314 203.154 108.314 203.155 108.314 203.155C108.314 203.156 108.313 203.156 108.313 203.157C108.313 203.158 108.313 203.16 108.313 203.161C108.313 203.165 108.312 203.17 108.312 203.176C108.311 203.187 108.31 203.203 108.308 203.223C108.305 203.264 108.301 203.321 108.296 203.395C108.287 203.543 108.276 203.755 108.265 204.027C108.245 204.571 108.23 205.353 108.251 206.323C108.294 208.261 108.478 210.961 109.05 214.027C110.19 220.14 112.891 227.835 119.201 233.774L120.229 232.681L121.257 231.589C115.583 226.249 113.074 219.245 111.999 213.478C111.464 210.604 111.29 208.07 111.251 206.258C111.231 205.353 111.245 204.63 111.263 204.139C111.272 203.894 111.283 203.707 111.291 203.583C111.294 203.522 111.298 203.476 111.3 203.447C111.301 203.433 111.302 203.422 111.302 203.417C111.302 203.414 111.303 203.412 111.303 203.411C111.303 203.411 111.303 203.41 111.303 203.411C111.303 203.411 111.303 203.411 111.303 203.411C111.303 203.411 111.303 203.412 109.808 203.283ZM120.229 232.681C121.718 232.863 121.718 232.864 121.718 232.864C121.718 232.864 121.718 232.865 121.718 232.865C121.718 232.866 121.718 232.866 121.718 232.867C121.718 232.867 121.717 232.868 121.717 232.868C121.717 232.868 121.718 232.866 121.718 232.863C121.719 232.857 121.721 232.844 121.724 232.825C121.729 232.787 121.739 232.724 121.754 232.638C121.785 232.466 121.837 232.201 121.92 231.853C122.087 231.157 122.378 230.131 122.87 228.86C123.853 226.318 125.641 222.794 128.847 218.962L127.697 217.999L126.546 217.037C123.108 221.146 121.161 224.963 120.072 227.777C119.528 229.184 119.198 230.339 119.003 231.155C118.905 231.563 118.841 231.886 118.801 232.114C118.78 232.228 118.766 232.318 118.756 232.383C118.752 232.415 118.748 232.441 118.745 232.461C118.744 232.471 118.743 232.479 118.742 232.485C118.742 232.488 118.741 232.491 118.741 232.494C118.741 232.495 118.741 232.496 118.74 232.497C118.74 232.498 118.74 232.498 118.74 232.499C118.74 232.499 118.74 232.5 120.229 232.681ZM127.697 217.999L128.847 218.962C130.891 216.52 133.634 214.764 135.927 213.61C137.064 213.037 138.067 212.624 138.783 212.354C139.14 212.22 139.425 212.122 139.616 212.058C139.711 212.027 139.784 212.004 139.83 211.989C139.854 211.982 139.87 211.977 139.881 211.974C139.886 211.972 139.889 211.971 139.89 211.971C139.891 211.971 139.892 211.971 139.892 211.971C139.892 211.971 139.891 211.971 139.891 211.971C139.891 211.971 139.891 211.971 139.891 211.971C139.89 211.971 139.89 211.971 139.468 210.532C139.046 209.092 139.045 209.092 139.045 209.093C139.045 209.093 139.044 209.093 139.044 209.093C139.043 209.093 139.042 209.093 139.041 209.094C139.039 209.094 139.037 209.095 139.034 209.096C139.029 209.097 139.022 209.099 139.013 209.102C138.995 209.108 138.97 209.115 138.939 209.125C138.876 209.144 138.787 209.173 138.673 209.21C138.447 209.285 138.125 209.397 137.726 209.546C136.931 209.846 135.826 210.301 134.577 210.931C132.097 212.18 128.955 214.158 126.546 217.037L127.697 217.999ZM148.756 203.283C147.27 203.076 147.27 203.076 147.27 203.075C147.27 203.075 147.27 203.075 147.27 203.075C147.27 203.075 147.27 203.075 147.27 203.075C147.27 203.075 147.27 203.076 147.27 203.077C147.27 203.08 147.269 203.085 147.268 203.093C147.266 203.108 147.262 203.132 147.257 203.165C147.247 203.231 147.23 203.332 147.207 203.464C147.161 203.73 147.088 204.121 146.981 204.61C146.769 205.59 146.426 206.956 145.907 208.49C144.858 211.59 143.139 215.227 140.455 217.803L141.493 218.885L142.531 219.968C145.721 216.908 147.634 212.744 148.748 209.451C149.311 207.789 149.682 206.311 149.913 205.246C150.029 204.713 150.11 204.282 150.163 203.98C150.189 203.829 150.208 203.71 150.221 203.627C150.227 203.586 150.232 203.554 150.236 203.53C150.237 203.519 150.239 203.51 150.24 203.503C150.24 203.5 150.241 203.497 150.241 203.495C150.241 203.493 150.241 203.493 150.241 203.492C150.241 203.491 150.241 203.491 150.242 203.491C150.242 203.49 150.242 203.49 148.756 203.283ZM141.493 218.885L140.455 217.803C137.472 220.664 133.03 222.355 129.178 223.322C127.277 223.799 125.57 224.087 124.34 224.256C123.726 224.34 123.233 224.394 122.897 224.427C122.729 224.443 122.6 224.454 122.515 224.461C122.473 224.464 122.441 224.467 122.421 224.468C122.411 224.469 122.404 224.469 122.4 224.47C122.398 224.47 122.397 224.47 122.396 224.47C122.396 224.47 122.396 224.47 122.396 224.47C122.396 224.47 122.396 224.47 122.396 224.47C122.396 224.47 122.396 224.47 122.494 225.967C122.592 227.464 122.592 227.464 122.593 227.464C122.593 227.464 122.593 227.464 122.594 227.464C122.595 227.463 122.596 227.463 122.597 227.463C122.599 227.463 122.602 227.463 122.606 227.463C122.614 227.462 122.625 227.461 122.639 227.46C122.667 227.458 122.706 227.455 122.756 227.451C122.857 227.443 123.003 227.431 123.188 227.413C123.559 227.376 124.091 227.318 124.748 227.228C126.059 227.048 127.877 226.741 129.908 226.231C133.922 225.224 138.98 223.375 142.531 219.968L141.493 218.885Z" fill="#E68409"/>
<ellipse cx="179.436" cy="145.516" rx="40.9508" ry="37.9598" fill="#EABB87"/>
<ellipse cx="176.561" cy="141.796" rx="41.4216" ry="39.8557" fill="#3D2616"/>
<path d="M181.326 111.3C193.353 119.688 190.332 137.884 179.701 147.865C169.57 157.376 152.86 160.254 143.527 150.016C136.5 142.307 140.139 124.131 151.288 115.407C160.48 108.213 171.995 104.792 181.326 111.3Z" fill="white"/>
<path d="M197.352 164.434C193.324 169.265 185.083 170.655 181.263 167.874C177.442 165.093 178.774 157.025 182.299 152.542C185.823 148.059 193.531 145.79 197.352 148.571C201.172 151.352 201.381 159.602 197.352 164.434Z" fill="white"/>
<ellipse cx="69.1521" cy="161.829" rx="40.9275" ry="40.7323" fill="#EABB87"/>
<ellipse cx="69.6462" cy="159.701" rx="41.4216" ry="39.8557" fill="#3D2616"/>
<path d="M74.4117 129.204C86.4386 137.593 83.4178 155.788 72.786 165.77C62.6559 175.281 45.9457 178.159 36.6127 167.921C29.5851 160.212 33.2249 142.036 44.3733 133.311C53.5654 126.118 65.0809 122.696 74.4117 129.204Z" fill="white"/>
<path d="M90.4372 182.339C86.4091 187.169 78.1687 188.56 74.348 185.779C70.5273 182.998 71.8597 174.93 75.3841 170.447C78.9085 165.964 86.6165 163.695 90.4372 166.476C94.2579 169.257 94.4664 177.507 90.4372 182.339Z" fill="white"/>
<path d="M139.077 92.3781C140.73 93.0149 143.939 95.1568 148.222 96.6611C149.671 97.17 151.687 97.2505 153.892 97.3872C158.486 97.5238 161.264 97.4177 162.251 97.1508C162.919 96.99 163.927 96.7777 165.448 96.3982" stroke="#3D2614" stroke-width="3.5" stroke-linecap="round"/>
<defs>
<radialGradient id="paint0_radial_655_1449" cx="0" cy="0" r="1" gradientUnits="userSpaceOnUse" gradientTransform="translate(135.509 273.414) rotate(81.692) scale(112.955 184.225)">
<stop stop-color="#9E572B"/>
<stop offset="1" stop-color="#8E461A"/>
</radialGradient>
<radialGradient id="paint1_radial_655_1449" cx="0" cy="0" r="1" gradientUnits="userSpaceOnUse" gradientTransform="translate(100.035 48.0485) rotate(54.1289) scale(239.121 283.958)">
<stop offset="0.666855" stop-color="#FEE3C5"/>
<stop offset="1" stop-color="#FFD3A3"/>
</radialGradient>
</defs>
</svg>
