<svg width="55" height="80" viewBox="0 0 55 80" fill="none" xmlns="http://www.w3.org/2000/svg">
<path d="M10.8772 25.5234C16.7172 25.1302 19.1698 30.7224 20.0908 35.5303C21.1286 40.9486 20.729 46.2916 20.8995 51.7616L21.2273 64.1296L21.3034 67.8482C21.3122 68.4099 21.345 69.2005 21.3147 69.7473C21.8735 69.5102 22.4754 69.3177 23.0523 69.1025C24.5481 68.5424 26.0481 67.9936 27.5522 67.4559C28.9718 66.9381 30.3631 66.4602 31.6337 65.6394C33.6097 64.3628 35.2111 62.3296 35.6634 60.0001C35.948 58.5345 35.8927 57.1881 35.8858 55.7064L35.8736 51.4268L35.8691 48.5944C35.8699 47.9379 35.8974 47.2664 35.8279 46.6126C35.7707 46.0736 35.6659 45.4974 35.3584 45.0388C35.1424 44.717 34.8007 44.4622 34.4154 44.3854C33.5435 44.2117 30.4159 45.2724 29.4115 45.6033C28.9211 45.7644 27.8712 46.2273 27.386 46.1281C27.2899 46.0493 27.2546 45.8251 27.2511 45.7032C27.2234 44.7362 27.2063 43.7657 27.1742 42.7991C27.1606 42.3902 27.4233 42.302 27.7671 42.1762C29.55 41.5244 31.338 40.8827 33.1206 40.2289L50.4899 33.8803C50.9665 33.7036 54.1072 32.4481 54.365 32.6678C54.5124 33.1457 54.4856 34.7777 54.5069 35.3815L54.7371 43.5846C54.7213 44.4022 54.76 45.595 54.8002 46.4099C54.8841 48.1088 54.8759 49.8244 54.9314 51.5072C55.0659 55.0224 55.2669 58.5619 52.6606 61.3332C50.5215 63.6078 48.227 64.5302 45.3665 65.5732L9.67363 78.6169C8.08859 79.1971 6.57191 79.8913 4.87161 79.99C0.18399 80.2613 0.536399 74.9351 0.523872 71.777L0.323239 53.1253C0.247326 47.87 0.198698 42.6093 0.140992 37.3534L0.107365 32.9632C0.100468 32.1827 0.0799205 31.3841 0.0952088 30.6045C0.107398 30.4345 0.0949522 30.3184 0.240034 30.2019C3.14951 27.8667 7.10419 25.6021 10.8772 25.5234Z" fill="#221139"/>
<path d="M44.1241 5.36923C41.2096 6.45457 38.2894 7.52513 35.3639 8.58083L15.9012 15.6908C14.8648 16.0695 13.6443 16.4751 12.6531 16.9337C11.8475 17.3519 11.2352 17.8227 10.8163 18.644C10.6604 18.9496 10.6165 19.9672 10.532 20.0144C7.66293 21.6194 4.99471 23.0673 2.71981 25.5383C2.1494 26.1659 1.64921 26.8532 1.22803 27.5881C1.03588 27.9221 0.746408 28.7912 0.541704 28.9065C0.347942 28.9471 0.0897507 28.9187 0.0699051 28.6701C0.0040834 27.8162 0.0767463 26.9286 0.0366911 26.0771C-0.101581 23.1378 0.0710662 20.1959 1.97297 17.781C3.602 15.7125 5.60725 14.9971 7.98867 14.1387L42.1883 1.64868C44.5959 0.772721 48.7812 -1.0245 51.1561 0.763416C52.9054 2.14172 52.8971 4.46341 53.0331 6.44089C53.2093 8.99962 52.6133 10.9129 51.0205 12.9357C49.2723 15.1561 46.603 16.1187 44.0425 17.0979C41.9841 17.8667 39.9214 18.6244 37.8547 19.3708L35.6909 20.1663C35.3116 20.3057 34.1833 20.7798 33.8374 20.6663C33.5722 20.4159 33.8763 19.7567 34.0034 19.477C35.079 17.1109 36.9161 14.5447 38.9262 12.867C38.9248 12.8665 38.364 12.8769 38.2892 12.8737C38.2995 12.718 38.3079 12.4927 38.3295 12.3443C38.9119 11.7214 39.5076 11.1109 40.1162 10.5133C40.3263 10.3059 40.9317 9.73406 41.0945 9.52432C41.1631 9.48151 41.5553 9.12748 41.6404 9.05297C41.329 9.22489 41.0468 9.31931 40.7133 9.44208C40.3874 9.56696 39.4839 9.98152 39.1977 9.79948C39.148 9.69294 39.1444 9.51201 39.1748 9.39622C39.2809 8.9917 43.6893 5.96221 44.3373 5.52774C44.6042 5.32838 44.938 5.16513 45.1824 4.95252C44.8072 5.11452 44.5104 5.23984 44.1241 5.36923Z" fill="#221139"/>
<path d="M18.9888 15.5252C19.1116 15.5351 19.1391 15.5693 19.2004 15.6609C19.2214 16.149 18.5065 16.5857 18.1604 16.8753C16.7138 18.0863 13.9523 20.6366 11.915 19.5018C11.6136 19.2347 11.1819 18.7637 11.3832 18.3326C11.6483 18.1476 12.3019 17.9232 12.6238 17.8022L14.503 17.0976C15.3526 16.7795 18.2424 15.5867 18.9888 15.5252Z" fill="#221139"/>
</svg>
