<svg width="287" height="322" viewBox="0 0 287 322" fill="none" xmlns="http://www.w3.org/2000/svg">
<path d="M135.154 74.5101L163.154 77.5101V89.0101L204.154 103.01C210.941 113.391 222.574 138.564 225.154 169.059V150.01L252.654 164.51C250.987 185.51 244.154 228.11 230.154 230.51C219.049 232.414 206.582 214.94 198.739 200.395C207.023 218.915 216.578 248.346 211.654 270.01C201.82 270.677 178.354 279.01 163.154 307.01C147.954 335.01 73.1538 242.677 37.6538 193.01C39.9871 169.677 51.5538 116.21 79.1538 89.0101L95.1538 93.5101L99.6538 81.5101L121.654 84.0101H132.154L135.154 74.5101Z" fill="#F9F5FF"/>
<path d="M135.154 74.5101L163.154 77.5101V89.0101L204.154 103.01C212.654 116.01 228.754 152.21 225.154 193.01V150.01L252.654 164.51C250.987 185.51 244.154 228.11 230.154 230.51C216.154 232.91 199.987 204.51 193.654 190.01C202.154 205.677 217.654 243.61 211.654 270.01C201.82 270.677 178.354 279.01 163.154 307.01C147.954 335.01 73.1538 242.677 37.6538 193.01C39.9871 169.677 51.5538 116.21 79.1538 89.0101L95.1538 93.5101L99.6538 81.5101L121.654 84.0101H132.154L135.154 74.5101Z" stroke="#C4A9FF" stroke-width="2"/>
<path d="M136.154 75.5101V67.5101L153.654 49.5101L165.654 51.5101L161.654 80.5101L136.154 75.5101Z" fill="#F9F5FF" stroke="#C4A9FF" stroke-width="2"/>
<path d="M143.654 69.0101C127.654 71.4101 129.32 46.6767 132.154 34.0101C133.917 21.0101 142.654 28.0101 153.654 28.0101C162.454 28.0101 164.32 35.6767 164.154 39.5101C164.654 38.0101 169.654 36.0101 169.654 44.5101C169.654 51.3101 164.987 51.6767 162.654 51.0101V56.0101C162.987 59.3434 159.654 66.6101 143.654 69.0101Z" fill="#F9F5FF" stroke="#C4A9FF" stroke-width="2"/>
<path d="M92.6541 35.5101C89.9874 45.5101 84.6541 65.7101 84.6541 66.5101C83.5037 71.3101 85.5081 72.5101 86.6541 72.5101L108.654 68.0101L115.654 42.5101L92.6541 35.5101Z" fill="#F9F5FF" stroke="#C4A9FF" stroke-width="2"/>
<path d="M258.154 98.5101C256.32 101.677 252.454 108.21 251.654 109.01L255.654 112.01L266.654 94.5101L250.654 88.0101L248.154 94.0101L258.154 98.5101Z" fill="#F9F5FF" stroke="#C4A9FF" stroke-width="2"/>
<path d="M237.154 115.51L236.154 122.51L233.154 150.51C235.554 158.91 244.82 158.677 249.154 157.51L254.654 140.01L260.654 123.51C249.054 124.31 240.154 118.51 237.154 115.51Z" fill="#F9F5FF" stroke="#C4A9FF" stroke-width="2"/>
<path d="M179.654 94.5101L171.654 92.0101L166.154 116.01C152.954 117.61 142.654 123.01 139.154 125.51L115.654 106.01L121.654 84.0101L114.654 83.5101C107.854 92.7101 79.4871 184.343 66.1538 229.01L159.154 312.51C178.754 278.11 203.987 270.177 214.154 270.51C217.487 254.01 218.154 214.81 194.154 190.01C170.154 165.21 174.487 116.01 179.654 94.5101Z" fill="#F9F5FF" stroke="#C4A9FF" stroke-width="2"/>
<path d="M147.654 51.5101H140.154C139.82 52.8435 140.054 55.7101 143.654 56.5101C147.254 57.3101 147.82 53.5101 147.654 51.5101Z" fill="#F9F5FF" stroke="#C4A9FF" stroke-width="2"/>
<path d="M164.654 38.5102C157.454 36.5102 154.987 30.6768 154.654 28.0102C166.654 23.6102 176.987 36.1768 180.654 43.0102C181.054 53.8102 187.487 63.5102 190.654 67.0102C181.454 74.2102 168.154 72.3435 162.654 70.5102L165.654 51.0102C166.454 51.0102 167.654 50.0102 168.154 49.5102C169.154 49.0102 170.654 45.0102 169.154 40.5102C167.954 36.9102 165.654 37.6768 164.654 38.5102Z" fill="#F9F5FF" stroke="#C4A9FF" stroke-width="2"/>
<path d="M132.654 32.5101C139.854 32.5101 146.321 29.5101 148.654 28.0101C151.154 25.0101 128.154 19.0101 128.154 30.5101C128.154 39.7101 126.154 43.3435 125.154 44.0101C118.354 53.2254 117.32 59.1831 117.654 61.0101C124.854 59.8101 131.654 63.8435 134.154 66.0101C128.554 58.0101 130.821 40.3435 132.654 32.5101Z" fill="#F9F5FF" stroke="#C4A9FF" stroke-width="2"/>
<path d="M182.654 45.5101C169.054 25.1101 136.987 28.0101 122.654 32.0101C128.254 28.81 130.987 23.6768 131.654 21.5101C134.854 9.91013 138.32 5.34343 139.654 4.51008C154.854 -4.28992 168.987 5.51008 174.154 11.5101C175.654 13.3434 178.454 18.9101 177.654 26.5101C176.854 34.1101 180.654 42.3434 182.654 45.5101Z" fill="#F9F5FF" stroke="#C4A9FF" stroke-width="2"/>
<path d="M78.1538 64.0102L79.1538 74.5102L80.1538 90.0101C88.5538 94.0101 92.6538 93.3435 93.6538 92.5101C95.1538 91.1768 98.9538 88.2101 102.154 87.0101C105.354 85.8101 105.154 83.5101 104.654 82.5101C108.654 79.7101 107.654 77.6768 106.654 77.0101C109.454 76.2101 109.154 74.0101 108.654 73.0101C111.854 72.2101 113.987 71.3435 114.654 71.0101C115.854 68.21 115.154 67.5101 114.654 67.5101L87.6538 71.0101C86.6538 71.3435 84.4538 70.4102 83.6538 64.0102C82.8538 57.6102 78.6538 57.0102 76.6538 57.5102L78.1538 64.0102Z" fill="#F9F5FF" stroke="#C4A9FF" stroke-width="2"/>
<path d="M263.359 140.784L255.904 148.245L245.267 159.563C236.242 157.301 233.504 154.177 233.263 152.898C232.955 150.915 231.913 146.208 230.209 143.246C228.505 140.283 230.123 138.637 231.145 138.184C229.842 133.478 231.908 132.546 233.104 132.669C231.453 130.269 233.085 128.764 234.107 128.311C232.148 125.657 231.055 123.63 230.753 122.949C231.61 120.026 232.595 119.931 232.981 120.25L251.576 140.135C252.135 141.029 254.426 141.71 259.117 137.283C263.808 132.856 267.429 135.067 268.653 136.726L263.359 140.784Z" fill="#F9F5FF" stroke="#C4A9FF" stroke-width="2"/>
<ellipse cx="251.154" cy="113.277" rx="13.6633" ry="7.02209" transform="rotate(14.735 251.154 113.277)" fill="#F9F5FF" stroke="#C4A9FF" stroke-width="2"/>
<circle cx="139.082" cy="40.4161" r="3" fill="#F9F5FF" stroke="#C4A9FF" stroke-width="2"/>
<circle cx="151.082" cy="40.4161" r="3" fill="#F9F5FF" stroke="#C4A9FF" stroke-width="2"/>
<path d="M22.758 308.768L83.258 195.268L112.758 208.768L52.758 305.268L48.758 301.768C53.758 315.768 43.186 321.174 32.186 320.674C23.386 320.274 0.852547 312.935 2.18588 308.768C-4.61412 301.568 19.9247 313.602 22.758 308.768Z" fill="#F9F5FF" stroke="#C4A9FF" stroke-width="2"/>
<path d="M220.258 145.768C236.924 143.102 273.258 143.168 285.258 164.768C286.591 185.602 282.358 233.268 254.758 257.268C248.971 258.346 240.941 258.436 232.186 256.177V295.674L49.7578 310.268L112.758 208.768L71.7578 189.768L116.758 128.268C119.258 123.435 129.558 116.668 150.758 128.268C158.091 132.102 174.358 139.668 180.758 139.268L179.758 151.268C181.758 155.935 189.558 164.868 204.758 163.268C208.758 162.768 217.458 158.568 220.258 145.768Z" fill="#F9F5FF"/>
<path d="M220.258 145.768C236.924 143.102 273.258 143.168 285.258 164.768C286.591 185.602 282.358 233.268 254.758 257.268C237.758 260.435 201.386 255.074 184.186 206.674L201.686 246.674L232.186 256.177V295.674L49.7578 310.268L112.758 208.768L71.7578 189.768L116.758 128.268C119.258 123.435 129.558 116.668 150.758 128.268C158.091 132.102 174.358 139.668 180.758 139.268L179.758 151.268C181.758 155.935 189.558 164.868 204.758 163.268C208.758 162.768 217.458 158.568 220.258 145.768Z" stroke="#C4A9FF" stroke-width="2"/>
<path d="M97.7578 149.768L85.2578 90.7684L115.758 81.7684L128.758 141.768L97.7578 149.768Z" fill="#F9F5FF" stroke="#C4A9FF" stroke-width="2"/>
<path d="M98.9493 140.674L88.6045 93.8215L113.846 86.6744L124.604 134.321L98.9493 140.674Z" fill="#F9F5FF" stroke="#C4A9FF" stroke-width="2"/>
<circle cx="112.604" cy="141.674" r="3" fill="#F9F5FF" stroke="#C4A9FF" stroke-width="2"/>
<path d="M92.758 127.268C95.958 115.668 91.4246 110.102 88.758 108.768C87.2579 117.768 85.7581 123.268 87.2581 127.268C88.4581 130.468 88.758 138.268 88.758 141.768C84.8696 161.768 88.1378 213.768 90.258 237.268C92.258 259.102 102.258 304.968 126.258 313.768C150.258 322.568 197.353 275.841 218.686 250.674C199.186 240.674 193.019 224.841 188.686 216.674C173.853 229.674 143.958 256.068 142.758 257.268C133.958 232.868 115.425 187.435 107.258 167.768L104.758 153.768C110.758 153.368 115.591 147.935 117.258 145.268L99.258 148.768L92.758 127.268Z" fill="#F9F5FF" stroke="#C4A9FF" stroke-width="2"/>
<path d="M182.258 125.768L179.758 151.268C180.258 153.602 185.758 162.268 199.258 163.268C214.604 164.405 219.591 150.935 219.758 144.268C220.958 124.268 227.924 108.935 231.258 103.768L244.258 75.7684L217.258 44.7684L194.758 43.2684C187.558 49.6684 185.424 57.2684 185.258 60.2684L183.758 75.7684L178.758 80.7684L182.258 125.768Z" fill="#F9F5FF" stroke="#C4A9FF" stroke-width="2"/>
<path d="M215.258 83.7684C196.058 88.9684 182.925 83.9351 178.758 80.7684C164.758 94.7684 168.758 127.268 189.258 127.768C209.758 128.268 216.258 104.768 216.258 98.7684C216.258 93.9684 217.591 91.7684 218.258 91.2684C219.258 90.7684 221.758 87.9684 223.758 80.7684C226.258 71.7684 233.758 70.7684 238.258 75.2684C241.858 78.8684 239.091 84.1018 237.258 86.2684L226.758 97.7684L231.258 103.768C246.058 102.168 253.425 90.4351 255.258 84.7684C264.758 31.7684 217.258 33.2684 210.758 34.2684C204.258 35.2684 197.258 32.7684 196.258 30.2684C195.258 27.7684 186.758 30.7684 191.258 39.2684C194.858 46.0684 205.758 47.1017 210.758 46.7684C209.958 56.3684 217.425 69.1017 221.258 74.2684L215.258 83.7684Z" fill="#F9F5FF" stroke="#C4A9FF" stroke-width="2"/>
<path d="M177.258 91.2684C179.758 92.2684 185.758 94.3684 189.758 94.7684C183.924 98.7684 173.258 103.668 177.258 91.2684Z" fill="#F9F5FF" stroke="#C4A9FF" stroke-width="2"/>
<path d="M192.258 63.2684L193.258 59.7684L202.758 65.7684L201.758 68.7684L192.258 63.2684Z" fill="#F9F5FF" stroke="#C4A9FF" stroke-width="2"/>
<circle cx="193.686" cy="71.6744" r="4" fill="#F9F5FF" stroke="#C4A9FF" stroke-width="2"/>
</svg>
