<svg width="285" height="320" viewBox="0 0 285 320" fill="none" xmlns="http://www.w3.org/2000/svg">
<path d="M134.154 73.5103L162.154 76.5103V88.0103L203.154 102.01C209.941 112.391 221.574 137.564 224.154 168.06V149.01L251.654 163.51C249.987 184.51 243.154 227.11 229.154 229.51C218.049 231.414 205.582 213.94 197.739 199.395C206.023 217.915 215.578 247.346 210.654 269.01C200.82 269.677 177.354 278.01 162.154 306.01C146.954 334.01 72.1538 241.677 36.6538 192.01C38.9871 168.677 50.5538 115.21 78.1538 88.0103L94.1538 92.5103L98.6538 80.5103L120.654 83.0103H131.154L134.154 73.5103Z" fill="#874FFE"/>
<path d="M135.154 74.5103V66.5103L152.654 48.5103L164.654 50.5103L160.654 79.5103L135.154 74.5103Z" fill="#C4A9FF"/>
<path d="M142.654 68.0102C126.654 70.4102 128.32 45.6769 131.154 33.0102C132.917 20.0102 141.654 27.0102 152.654 27.0102C161.454 27.0102 163.32 34.6769 163.154 38.5102C163.654 37.0102 168.654 35.0102 168.654 43.5102C168.654 50.3102 163.987 50.6769 161.654 50.0102V55.0102C161.987 58.3435 158.654 65.6102 142.654 68.0102Z" fill="#C4A9FF"/>
<path d="M91.6541 34.5103C88.9874 44.5103 83.6541 64.7103 83.6541 65.5103C82.5037 70.3103 84.5081 71.5103 85.6541 71.5103L107.654 67.0103L114.654 41.5103L91.6541 34.5103Z" fill="#67339C"/>
<path d="M257.154 97.5103C255.32 100.677 251.454 107.21 250.654 108.01L254.654 111.01L265.654 93.5103L249.654 87.0103L247.154 93.0103L257.154 97.5103Z" fill="#221139"/>
<path d="M236.154 114.51L235.154 121.51L232.154 149.51C234.554 157.91 243.82 157.677 248.154 156.51L253.654 139.01L259.654 122.51C248.054 123.31 239.154 117.51 236.154 114.51Z" fill="#8E47D6"/>
<path d="M178.654 93.5103L170.654 91.0103L165.154 115.01C151.954 116.61 141.654 122.01 138.154 124.51L114.654 105.01L120.654 83.0103L113.654 82.5103C106.854 91.7103 78.4871 183.344 65.1538 228.01L158.154 311.51C177.754 277.11 202.987 269.177 213.154 269.51C216.487 253.01 217.154 213.81 193.154 189.01C169.154 164.21 173.487 115.01 178.654 93.5103Z" fill="#F9F5FF"/>
<path d="M146.654 50.5103H139.154C138.82 51.8436 139.054 54.7103 142.654 55.5103C146.254 56.3103 146.82 52.5103 146.654 50.5103Z" fill="#67339C"/>
<path d="M163.654 37.5103C156.454 35.5103 153.987 29.677 153.654 27.0103C165.654 22.6103 175.987 35.177 179.654 42.0103C180.054 52.8103 186.487 62.5103 189.654 66.0103C180.454 73.2103 167.154 71.3436 161.654 69.5103L164.654 50.0103C165.454 50.0103 166.654 49.0103 167.154 48.5103C168.154 48.0103 169.654 44.0103 168.154 39.5103C166.954 35.9103 164.654 36.677 163.654 37.5103Z" fill="#221139"/>
<path d="M131.654 31.5103C138.854 31.5103 145.321 28.5103 147.654 27.0103C150.154 24.0103 127.154 18.0103 127.154 29.5103C127.154 38.7103 125.154 42.3436 124.154 43.0103C117.354 52.2255 116.32 58.1833 116.654 60.0103C123.854 58.8102 130.654 62.8436 133.154 65.0103C127.554 57.0103 129.821 39.3436 131.654 31.5103Z" fill="#221139"/>
<path d="M181.654 44.5102C168.054 24.1102 135.987 27.0102 121.654 31.0102C127.254 27.8101 129.987 22.6769 130.654 20.5103C133.854 8.91025 137.32 4.34355 138.654 3.5102C153.854 -5.2898 167.987 4.5102 173.154 10.5102C174.654 12.3435 177.454 17.9102 176.654 25.5102C175.854 33.1102 179.654 41.3435 181.654 44.5102Z" fill="#8036CB"/>
<path d="M77.1538 63.0104L78.1538 73.5104L79.1538 89.0103C87.5538 93.0103 91.6538 92.3436 92.6538 91.5103C94.1538 90.1769 97.9538 87.2103 101.154 86.0103C104.354 84.8103 104.154 82.5103 103.654 81.5103C107.654 78.7103 106.654 76.6769 105.654 76.0103C108.454 75.2103 108.154 73.0103 107.654 72.0103C110.854 71.2103 112.987 70.3436 113.654 70.0103C114.854 67.2102 114.154 66.5102 113.654 66.5103L86.6538 70.0103C85.6538 70.3436 83.4538 69.4104 82.6538 63.0104C81.8538 56.6104 77.6538 56.0104 75.6538 56.5104L77.1538 63.0104Z" fill="#C4A9FF"/>
<path d="M262.359 139.784L254.904 147.246L244.267 158.563C235.242 156.301 232.504 153.177 232.263 151.898C231.955 149.915 230.913 145.208 229.209 142.246C227.505 139.283 229.123 137.637 230.145 137.184C228.842 132.478 230.908 131.546 232.104 131.669C230.453 129.27 232.085 127.764 233.107 127.311C231.148 124.657 230.055 122.631 229.753 121.949C230.61 119.026 231.595 118.931 231.981 119.25L250.576 139.136C251.135 140.029 253.426 140.71 258.117 136.283C262.808 131.856 266.429 134.067 267.653 135.726L262.359 139.784Z" fill="#C4A9FF"/>
<ellipse cx="250.154" cy="112.277" rx="13.6633" ry="7.02209" transform="rotate(14.735 250.154 112.277)" fill="#221139"/>
<circle cx="138.082" cy="39.4163" r="3" fill="#221139"/>
<circle cx="150.082" cy="39.4163" r="3" fill="#221139"/>
<path d="M21.758 307.769L82.258 194.269L111.758 207.769L51.758 304.269L47.758 300.769C52.758 314.769 42.186 320.175 31.186 319.675C22.386 319.275 -0.147453 311.935 1.18588 307.769C-5.61412 300.569 18.9247 312.602 21.758 307.769Z" fill="#AD87FF"/>
<path d="M219.258 144.768C235.924 142.102 272.258 142.168 284.258 163.768C285.591 184.602 281.358 232.268 253.758 256.268C247.971 257.346 239.941 257.436 231.186 255.177V294.675L48.7578 309.268L111.758 207.768L70.7578 188.768L115.758 127.268C118.258 122.435 128.558 115.668 149.758 127.268C157.091 131.102 173.358 138.669 179.758 138.269L178.758 150.269C180.758 154.935 188.558 163.869 203.758 162.269C207.758 161.769 216.458 157.568 219.258 144.768Z" fill="#67339C"/>
<path d="M96.7578 148.769L84.2578 89.7686L114.758 80.7686L127.758 140.769L96.7578 148.769Z" fill="#67339C"/>
<path d="M97.9493 139.675L87.6045 92.8216L112.846 85.6746L123.604 133.322L97.9493 139.675Z" fill="#F9F5FF"/>
<circle cx="111.604" cy="140.675" r="3" fill="#F9F5FF"/>
<path d="M91.758 126.269C94.958 114.669 90.4246 109.102 87.758 107.769C86.2579 116.769 84.7581 122.269 86.2581 126.269C87.4581 129.469 87.758 137.269 87.758 140.769C83.8696 160.769 87.1378 212.769 89.258 236.269C91.258 258.102 101.258 303.969 125.258 312.769C149.258 321.569 196.353 274.841 217.686 249.675C198.186 239.675 192.019 223.841 187.686 215.675C172.853 228.675 142.958 255.069 141.758 256.269C132.958 231.869 114.425 186.435 106.258 166.769L103.758 152.769C109.758 152.369 114.591 146.935 116.258 144.269L98.258 147.769L91.758 126.269Z" fill="#C4A9FF"/>
<path d="M181.258 124.769L178.758 150.269C179.258 152.602 184.758 161.269 198.258 162.269C213.604 163.405 218.591 149.935 218.758 143.269C219.958 123.269 226.924 107.935 230.258 102.769L243.258 74.7686L216.258 43.7686L193.758 42.2686C186.558 48.6686 184.424 56.2686 184.258 59.2686L182.758 74.7686L177.758 79.7686L181.258 124.769Z" fill="#C4A9FF"/>
<path d="M214.258 82.7685C195.058 87.9685 181.925 82.9352 177.758 79.7685C163.758 93.7685 167.758 126.269 188.258 126.769C208.758 127.269 215.258 103.769 215.258 97.7686C215.258 92.9686 216.591 90.7686 217.258 90.2686C218.258 89.7686 220.758 86.9686 222.758 79.7685C225.258 70.7685 232.758 69.7686 237.258 74.2686C240.858 77.8686 238.091 83.1019 236.258 85.2686L225.758 96.7686L230.258 102.769C245.058 101.169 252.425 89.4352 254.258 83.7686C263.758 30.7686 216.258 32.2686 209.758 33.2686C203.258 34.2686 196.258 31.7685 195.258 29.2685C194.258 26.7685 185.758 29.7685 190.258 38.2685C193.858 45.0685 204.758 46.1019 209.758 45.7685C208.958 55.3685 216.425 68.1019 220.258 73.2685L214.258 82.7685Z" fill="#67339C"/>
<path d="M176.258 90.2686C178.758 91.2686 184.758 93.3686 188.758 93.7686C182.924 97.7686 172.258 102.669 176.258 90.2686Z" fill="#221139"/>
<path d="M191.258 62.2686L192.258 58.7686L201.758 64.7686L200.758 67.7686L191.258 62.2686Z" fill="#67339C"/>
<circle cx="192.686" cy="70.6746" r="4" fill="#221139"/>
</svg>
