<svg width="918" height="364" viewBox="0 0 918 364" fill="none" xmlns="http://www.w3.org/2000/svg">
<path d="M72.6075 213L53.2951 206.328C50.0703 205.214 47.0208 208.39 48.264 211.567L67.3577 260.362C67.523 260.784 67.7589 261.175 68.0554 261.519L85.8125 282.08C86.3308 282.68 87.0156 283.112 87.7802 283.322L132.107 295.5L155.607 304L161.721 307.057C165.267 308.83 168.955 304.919 166.977 301.483L157.098 284.326C155.451 281.465 153.304 278.923 150.759 276.82C145.813 272.735 139.598 270.5 133.183 270.5H128.153C127.791 270.5 127.431 270.451 127.082 270.354L101.788 263.328C101.018 263.114 100.331 262.675 99.8132 262.068L89.8975 250.427C89.3825 249.823 89.0591 249.079 88.9686 248.29L85.8638 221.234C85.7046 219.847 84.8337 218.643 83.5661 218.058L72.6075 213Z" fill="#C4A9FF"/>
<path d="M250.107 154.5L195.607 148.5L182.607 154.5L172.607 186L181.107 219L195.607 227.5L252.607 218L250.107 154.5Z" fill="#AD87FF"/>
<path d="M196.107 148.5L167.107 134.5C157.774 139.167 138.707 156.4 137.107 188C135.507 219.6 151.774 238.5 160.107 244L196.107 227.5C166.907 196.3 183.941 161.833 196.107 148.5Z" fill="#C4A9FF"/>
<path d="M196.408 49.4383L207.107 23.5L122.107 50.5L74.6075 93.5L45.1075 150.5L10.1075 141.5L16.6917 170.263C18.5294 178.291 24.0038 185.003 31.498 188.418C46.0928 195.069 63.1997 187.296 67.7888 171.927L78.6145 135.674C79.9278 131.276 82.1717 127.212 85.1942 123.758L113.05 91.9233C117.008 87.3994 122.161 84.0819 127.917 82.3509L176.041 67.8802C185.258 65.1087 192.738 58.3357 196.408 49.4383Z" fill="#C4A9FF"/>
<path d="M39.8075 70.7743L11.1971 124.668C4.81813 136.685 9.48252 151.597 21.5718 157.836C34.6106 164.566 50.5984 158.367 55.6917 144.606L71.8858 100.853C73.6738 96.0226 76.6016 91.6948 80.4203 88.2378L116.048 55.9856C120.024 52.3863 124.841 49.8441 130.056 48.5924L198.325 32.2079C204.699 30.6781 208.832 24.5119 207.824 18.0346C206.845 11.7387 201.315 7.16774 194.947 7.39062L117.399 10.1048C110.092 10.3605 103.094 13.1104 97.5674 17.8969L47.1212 61.5905C44.1378 64.1745 41.6582 67.2882 39.8075 70.7743Z" fill="#E2D6FF"/>
<path d="M29.571 203.317L21.6411 206.075C11.0672 209.753 3.18415 218.69 0.854325 229.64L0.70061 230.362C-0.023313 233.765 -0.187617 237.262 0.214164 240.718L3.66125 270.363C4.28205 275.701 6.23761 280.798 9.34747 285.182L39.1406 327.179C43.6315 333.51 50.2701 337.992 57.8202 339.792L127.13 356.313C130.427 357.099 133.829 357.357 137.207 357.075L149.474 356.053C157.542 355.38 164.982 351.432 170.061 345.127C174.297 339.868 176.607 333.317 176.607 326.564V325.01C176.607 316.144 172.621 307.748 165.751 302.144C160.484 297.847 153.895 295.5 147.097 295.5H136.423C133.559 295.5 130.708 295.115 127.946 294.357L95.9893 285.577C89.873 283.897 84.394 280.437 80.2481 275.637L73.9127 268.301C69.8006 263.539 67.1832 257.672 66.3878 251.431L62.8862 223.956C61.7805 215.281 56.2609 207.797 48.2993 204.178C42.3989 201.496 35.6926 201.188 29.571 203.317Z" fill="#E2D6FF"/>
<path d="M236.619 180.902C237.067 147.687 264.427 133.795 278.051 131L292.607 231.203C255.095 238.788 236.06 222.421 236.619 180.902Z" fill="#874FFE"/>
<path d="M103.607 249C60.8075 180.2 113.107 114.333 144.607 90C158.607 79.6 176.774 82.3334 184.107 85C212.507 100.6 194.274 129.167 181.607 141.5L166.607 134L153.107 150C125.907 198 148.774 230 163.607 240L181.607 234C208.107 266.5 157.107 335 103.607 249Z" fill="#E2D6FF"/>
<path d="M260.107 174C260.507 132.4 284.941 115 297.107 111.5L310.107 237C276.607 246.5 259.607 226 260.107 174Z" fill="#AD87FF"/>
<path d="M845.107 213L864.42 206.328C867.645 205.214 870.694 208.39 869.451 211.567L850.357 260.362C850.192 260.784 849.956 261.175 849.659 261.519L831.902 282.08C831.384 282.68 830.699 283.112 829.935 283.322L785.607 295.5L762.107 304L755.994 307.057C752.448 308.83 748.76 304.919 750.738 301.483L760.616 284.326C762.264 281.465 764.411 278.923 766.956 276.82C771.902 272.735 778.117 270.5 784.532 270.5H789.562C789.924 270.5 790.284 270.451 790.633 270.354L815.927 263.328C816.696 263.114 817.384 262.675 817.902 262.068L827.817 250.427C828.332 249.823 828.656 249.079 828.746 248.29L831.851 221.234C832.01 219.847 832.881 218.643 834.149 218.058L845.107 213Z" fill="#C4A9FF"/>
<path d="M667.607 154.5L722.107 148.5L735.107 154.5L745.107 186L736.607 219L722.107 227.5L665.107 218L667.607 154.5Z" fill="#AD87FF"/>
<path d="M721.607 148.5L750.607 134.5C759.941 139.167 779.007 156.4 780.607 188C782.207 219.6 765.941 238.5 757.607 244L721.607 227.5C750.807 196.3 733.774 161.833 721.607 148.5Z" fill="#C4A9FF"/>
<path d="M721.307 49.4383L710.607 23.5L795.607 50.5L843.107 93.5L872.607 150.5L907.607 141.5L901.023 170.263C899.186 178.291 893.711 185.003 886.217 188.418C871.622 195.069 854.515 187.296 849.926 171.927L839.1 135.674C837.787 131.276 835.543 127.212 832.521 123.758L804.665 91.9233C800.707 87.3994 795.554 84.0819 789.798 82.3509L741.674 67.8802C732.457 65.1087 724.977 58.3357 721.307 49.4383Z" fill="#C4A9FF"/>
<path d="M877.907 70.7743L906.518 124.668C912.897 136.685 908.232 151.597 896.143 157.836C883.104 164.566 867.117 158.367 862.023 144.606L845.829 100.853C844.041 96.0226 841.113 91.6948 837.295 88.2378L801.667 55.9856C797.691 52.3863 792.874 49.8441 787.659 48.5924L719.39 32.2079C713.016 30.6781 708.883 24.5119 709.891 18.0346C710.87 11.7387 716.4 7.16774 722.768 7.39062L800.316 10.1048C807.623 10.3605 814.621 13.1104 820.148 17.8969L870.594 61.5905C873.577 64.1745 876.057 67.2882 877.907 70.7743Z" fill="#E2D6FF"/>
<path d="M888.144 203.317L896.074 206.075C906.648 209.753 914.531 218.69 916.861 229.64L917.014 230.362C917.738 233.765 917.903 237.262 917.501 240.718L914.054 270.363C913.433 275.701 911.477 280.798 908.367 285.182L878.574 327.179C874.083 333.51 867.445 337.992 859.895 339.792L790.585 356.313C787.288 357.099 783.886 357.357 780.508 357.075L768.241 356.053C760.173 355.38 752.733 351.432 747.654 345.127C743.418 339.868 741.107 333.317 741.107 326.564V325.01C741.107 316.144 745.094 307.748 751.964 302.144C757.231 297.847 763.82 295.5 770.618 295.5H781.292C784.156 295.5 787.007 295.115 789.769 294.357L821.726 285.577C827.842 283.897 833.321 280.437 837.467 275.637L843.802 268.301C847.914 263.539 850.532 257.672 851.327 251.431L854.829 223.956C855.934 215.281 861.454 207.797 869.416 204.178C875.316 201.496 882.022 201.188 888.144 203.317Z" fill="#E2D6FF"/>
<path d="M681.095 180.902C680.648 147.687 653.288 133.795 639.664 131L625.107 231.203C662.619 238.788 681.655 222.421 681.095 180.902Z" fill="#874FFE"/>
<path d="M814.107 249C856.907 180.2 804.607 114.333 773.107 90C759.107 79.6 740.941 82.3334 733.607 85C705.207 100.6 723.441 129.167 736.107 141.5L751.107 134L764.607 150C791.807 198 768.941 230 754.107 240L736.107 234C709.607 266.5 760.607 335 814.107 249Z" fill="#E2D6FF"/>
<path d="M657.607 174C657.207 132.4 632.774 115 620.607 111.5L607.607 237C641.107 246.5 658.107 226 657.607 174Z" fill="#AD87FF"/>
<path d="M375.607 0L292.607 91V273L375.607 364H541.607L624.607 273V91L541.607 0H375.607Z" fill="#C4A9FF"/>
<path d="M385.607 22L312.607 102V262L385.607 342H531.607L604.607 262V102L531.607 22H385.607Z" fill="#D6C4FF"/>
<path d="M173.607 102.5C173.607 112.717 165.549 121 155.607 121C145.666 121 137.607 112.717 137.607 102.5C137.607 92.2827 145.666 84 155.607 84C165.549 84 173.607 92.2827 173.607 102.5Z" fill="#AD87FF"/>
<path d="M744.107 102.5C744.107 112.717 752.166 121 762.107 121C772.049 121 780.107 112.717 780.107 102.5C780.107 92.2827 772.049 84 762.107 84C752.166 84 744.107 92.2827 744.107 102.5Z" fill="#AD87FF"/>
<path d="M51.6075 133.5C51.6075 143.717 43.5486 152 33.6075 152C23.6663 152 15.6075 143.717 15.6075 133.5C15.6075 123.283 23.6663 115 33.6075 115C43.5486 115 51.6075 123.283 51.6075 133.5Z" fill="#AD87FF"/>
<path d="M866.107 133.5C866.107 143.717 874.166 152 884.107 152C894.049 152 902.107 143.717 902.107 133.5C902.107 123.283 894.049 115 884.107 115C874.166 115 866.107 123.283 866.107 133.5Z" fill="#AD87FF"/>
<path d="M173.607 97.5C173.607 107.717 165.549 116 155.607 116C145.666 116 137.607 107.717 137.607 97.5C137.607 87.2827 145.666 79 155.607 79C165.549 79 173.607 87.2827 173.607 97.5Z" fill="#C4A9FF"/>
<path d="M744.107 97.5C744.107 107.717 752.166 116 762.107 116C772.049 116 780.107 107.717 780.107 97.5C780.107 87.2827 772.049 79 762.107 79C752.166 79 744.107 87.2827 744.107 97.5Z" fill="#C4A9FF"/>
<path d="M51.6075 128.5C51.6075 138.717 43.5486 147 33.6075 147C23.6663 147 15.6075 138.717 15.6075 128.5C15.6075 118.283 23.6663 110 33.6075 110C43.5486 110 51.6075 118.283 51.6075 128.5Z" fill="#C4A9FF"/>
<path d="M866.107 128.5C866.107 138.717 874.166 147 884.107 147C894.049 147 902.107 138.717 902.107 128.5C902.107 118.283 894.049 110 884.107 110C874.166 110 866.107 118.283 866.107 128.5Z" fill="#C4A9FF"/>
<path d="M192.141 13.5638L123.71 16.539C119.322 16.7298 117.022 21.8351 119.785 25.2489C120.922 26.6533 122.691 27.3889 124.489 27.2045L192.626 20.216C195.423 19.9292 196.633 16.5253 194.645 14.5378C193.984 13.8765 193.075 13.5231 192.141 13.5638Z" fill="#AD87FF"/>
<path d="M725.574 13.5638L794.004 16.539C798.392 16.7298 800.693 21.8351 797.93 25.2489C796.793 26.6533 795.024 27.3889 793.226 27.2045L725.088 20.216C722.292 19.9292 721.082 16.5253 723.07 14.5378C723.731 13.8765 724.639 13.5231 725.574 13.5638Z" fill="#AD87FF"/>
<path d="M190.641 9.06375L122.21 12.039C117.822 12.2298 115.522 17.3351 118.285 20.7489C119.422 22.1533 121.191 22.8889 122.989 22.7045L191.126 15.716C193.923 15.4292 195.133 12.0253 193.145 10.0378C192.484 9.37652 191.575 9.02313 190.641 9.06375Z" fill="#C4A9FF"/>
<path d="M727.074 9.06375L795.504 12.039C799.892 12.2298 802.193 17.3351 799.43 20.7489C798.293 22.1533 796.524 22.8889 794.726 22.7045L726.588 15.716C723.792 15.4292 722.582 12.0253 724.57 10.0378C725.231 9.37652 726.139 9.02313 727.074 9.06375Z" fill="#C4A9FF"/>
<path d="M312.607 102L292.607 91L375.607 0L385.607 22L312.607 102Z" fill="#874FFE"/>
<path d="M604.607 102L624.607 91L541.607 0L531.607 22L604.607 102Z" fill="#AD87FF"/>
<path d="M604.607 262L624.607 273L541.607 364L531.607 342L604.607 262Z" fill="#874FFE"/>
<path d="M312.607 262L292.607 273L375.607 364L385.607 342L312.607 262Z" fill="#AD87FF"/>
</svg>
