<svg width="348" height="138" viewBox="0 0 348 138" fill="none" xmlns="http://www.w3.org/2000/svg">
<path d="M27.5329 80.7527L20.2096 78.2234C18.9868 77.8011 17.8304 79.0049 18.3019 80.2094L25.5422 98.7086C25.6049 98.8687 25.6944 99.017 25.8068 99.1472L32.5403 106.942C32.7369 107.17 32.9966 107.334 33.2865 107.413L50.0955 112.03L59.0068 115.253L61.3252 116.412C62.6698 117.084 64.0681 115.601 63.318 114.299L59.5722 107.794C58.9475 106.709 58.1332 105.746 57.1681 104.948C55.2926 103.4 52.9361 102.552 50.5035 102.552H48.5959C48.4586 102.552 48.3221 102.534 48.1899 102.497L38.5981 99.8331C38.3065 99.7521 38.0457 99.5857 37.8494 99.3553L34.0894 94.9423C33.8941 94.7131 33.7715 94.4309 33.7371 94.1318L32.5598 83.8743C32.4994 83.3484 32.1692 82.8921 31.6885 82.6703L27.5329 80.7527Z" fill="#C4A9FF"/>
<path d="M94.8414 58.5742L74.1749 56.2995L69.2452 58.5742L65.4532 70.5165L68.6764 83.0275L74.1749 86.25L95.7894 82.6484L94.8414 58.5742Z" fill="#AD87FF"/>
<path d="M74.3645 56.2995L63.3676 50.9918C59.8284 52.761 52.5982 59.2945 51.9915 71.2747C51.3848 83.2549 57.5532 90.4203 60.7132 92.5055L74.3645 86.25C63.2918 74.4214 69.7509 61.3544 74.3645 56.2995Z" fill="#C4A9FF"/>
<path d="M74.4784 18.7431L78.5357 8.90934L46.3035 19.1456L28.2914 35.4478L17.1049 57.0577L3.83278 53.6456L6.32952 64.5501C7.0264 67.5937 9.10229 70.1386 11.9441 71.4334C17.4785 73.9548 23.9655 71.0077 25.7057 65.1813L29.8108 51.4369C30.3088 49.7695 31.1597 48.2288 32.3059 46.9193L42.8687 34.85C44.3698 33.1349 46.3236 31.8772 48.5066 31.2209L66.7551 25.7348C70.2502 24.6841 73.0867 22.1163 74.4784 18.7431Z" fill="#C4A9FF"/>
<path d="M15.0951 26.832L4.24598 47.2643C1.82705 51.82 3.5958 57.4735 8.18007 59.8391C13.1244 62.3905 19.1871 60.0401 21.1184 54.8231L27.2593 38.2356C27.9373 36.4042 29.0475 34.7634 30.4956 33.4528L44.0056 21.2253C45.5133 19.8607 47.3399 18.8969 49.3174 18.4224L75.2052 12.2107C77.6223 11.6307 79.1895 9.29298 78.8074 6.83729C78.436 4.45037 76.3391 2.71744 73.9244 2.80194L44.5179 3.83094C41.7473 3.92789 39.0934 4.97044 36.9978 6.78509L17.8685 23.3502C16.7372 24.3299 15.7969 25.5104 15.0951 26.832Z" fill="#E2D6FF"/>
<path d="M11.2134 77.0817L8.20635 78.1274C4.19669 79.5218 1.20744 82.9098 0.323962 87.0612L0.265673 87.3351C-0.00884037 88.6251 -0.0711449 89.9511 0.0812117 91.2611L1.38836 102.5C1.62376 104.524 2.36532 106.456 3.54458 108.118L14.8422 124.04C16.5452 126.441 19.0626 128.14 21.9256 128.822L48.2079 135.086C49.4584 135.384 50.7482 135.481 52.0293 135.375L56.6808 134.987C59.7402 134.732 62.5615 133.235 64.4874 130.845C66.094 128.851 66.97 126.368 66.97 123.807V123.218C66.97 119.857 65.4585 116.674 62.8534 114.549C60.856 112.92 58.3574 112.03 55.7797 112.03H51.732C50.6459 112.03 49.5648 111.884 48.5175 111.597L36.3994 108.268C34.0801 107.631 32.0024 106.32 30.4303 104.5L28.0279 101.718C26.4686 99.9133 25.4761 97.6887 25.1745 95.3226L23.8466 84.9065C23.4273 81.6175 21.3343 78.7802 18.3152 77.4082C16.0778 76.3914 13.5347 76.2745 11.2134 77.0817Z" fill="#E2D6FF"/>
<path d="M89.7267 68.5837C89.8966 55.9913 100.271 50.7243 105.438 49.6648L110.958 87.654C96.7329 90.5297 89.5144 84.3243 89.7267 68.5837Z" fill="#874FFE"/>
<path d="M39.2882 94.4011C23.0584 68.3176 42.8907 43.3462 54.8355 34.1209C60.1444 30.178 67.0332 31.2143 69.814 32.2253C80.5834 38.1396 73.6693 48.9698 68.866 53.6456L63.178 50.8022L58.0588 56.8681C47.7444 75.0659 56.4156 87.1978 62.0404 90.989L68.866 88.7143C78.9149 101.036 59.5756 127.006 39.2882 94.4011Z" fill="#E2D6FF"/>
<path d="M98.6335 65.967C98.7851 50.1956 108.05 43.5989 112.664 42.272L117.594 89.8517C104.89 93.4533 98.4439 85.6813 98.6335 65.967Z" fill="#AD87FF"/>
<path d="M320.467 80.7527L327.79 78.2234C329.013 77.8011 330.17 79.0049 329.698 80.2094L322.458 98.7086C322.395 98.8687 322.306 99.017 322.193 99.1472L315.46 106.942C315.263 107.17 315.003 107.334 314.714 107.413L297.904 112.03L288.993 115.253L286.675 116.412C285.33 117.084 283.932 115.601 284.682 114.299L288.428 107.794C289.052 106.709 289.867 105.746 290.832 104.948C292.707 103.4 295.064 102.552 297.497 102.552H299.404C299.541 102.552 299.678 102.534 299.81 102.497L309.402 99.8331C309.694 99.7521 309.954 99.5857 310.151 99.3553L313.911 94.9423C314.106 94.7131 314.229 94.4309 314.263 94.1318L315.44 83.8743C315.501 83.3484 315.831 82.8921 316.311 82.6703L320.467 80.7527Z" fill="#C4A9FF"/>
<path d="M253.159 58.5742L273.825 56.2995L278.755 58.5742L282.547 70.5165L279.324 83.0275L273.825 86.25L252.211 82.6484L253.159 58.5742Z" fill="#AD87FF"/>
<path d="M273.636 56.2995L284.632 50.9918C288.172 52.761 295.402 59.2945 296.008 71.2747C296.615 83.2549 290.447 90.4203 287.287 92.5055L273.636 86.25C284.708 74.4214 278.249 61.3544 273.636 56.2995Z" fill="#C4A9FF"/>
<path d="M273.522 18.7431L269.464 8.90934L301.697 19.1456L319.709 35.4478L330.895 57.0577L344.167 53.6456L341.67 64.5501C340.974 67.5937 338.898 70.1386 336.056 71.4334C330.521 73.9548 324.034 71.0077 322.294 65.1813L318.189 51.4369C317.691 49.7695 316.84 48.2288 315.694 46.9193L305.131 34.85C303.63 33.1349 301.676 31.8772 299.493 31.2209L281.245 25.7348C277.75 24.6841 274.913 22.1163 273.522 18.7431Z" fill="#C4A9FF"/>
<path d="M332.905 26.832L343.754 47.2643C346.173 51.82 344.404 57.4735 339.82 59.8391C334.876 62.3905 328.813 60.0401 326.882 54.8231L320.741 38.2356C320.063 36.4042 318.952 34.7634 317.504 33.4528L303.994 21.2253C302.487 19.8607 300.66 18.8969 298.683 18.4224L272.795 12.2107C270.378 11.6307 268.811 9.29298 269.193 6.83729C269.564 4.45037 271.661 2.71744 274.076 2.80194L303.482 3.83094C306.253 3.92789 308.907 4.97044 311.002 6.78509L330.131 23.3502C331.263 24.3299 332.203 25.5104 332.905 26.832Z" fill="#E2D6FF"/>
<path d="M336.787 77.0817L339.794 78.1274C343.803 79.5218 346.793 82.9098 347.676 87.0612L347.734 87.3351C348.009 88.6251 348.071 89.9511 347.919 91.2611L346.612 102.5C346.376 104.524 345.635 106.456 344.455 108.118L333.158 124.04C331.455 126.441 328.937 128.14 326.074 128.822L299.792 135.086C298.542 135.384 297.252 135.481 295.971 135.375L291.319 134.987C288.26 134.732 285.438 133.235 283.513 130.845C281.906 128.851 281.03 126.368 281.03 123.807V123.218C281.03 119.857 282.542 116.674 285.147 114.549C287.144 112.92 289.643 112.03 292.22 112.03H296.268C297.354 112.03 298.435 111.884 299.483 111.597L311.601 108.268C313.92 107.631 315.998 106.32 317.57 104.5L319.972 101.718C321.531 99.9133 322.524 97.6887 322.826 95.3226L324.153 84.9065C324.573 81.6175 326.666 78.7802 329.685 77.4082C331.922 76.3914 334.465 76.2745 336.787 77.0817Z" fill="#E2D6FF"/>
<path d="M258.273 68.5837C258.103 55.9913 247.729 50.7243 242.562 49.6648L237.042 87.654C251.267 90.5297 258.486 84.3243 258.273 68.5837Z" fill="#874FFE"/>
<path d="M308.712 94.4011C324.942 68.3176 305.109 43.3462 293.164 34.1209C287.856 30.178 280.967 31.2143 278.186 32.2253C267.417 38.1396 274.331 48.9698 279.134 53.6456L284.822 50.8022L289.941 56.8681C300.256 75.0659 291.584 87.1978 285.96 90.989L279.134 88.7143C269.085 101.036 288.424 127.006 308.712 94.4011Z" fill="#E2D6FF"/>
<path d="M249.367 65.967C249.215 50.1956 239.95 43.5989 235.336 42.272L230.406 89.8517C243.11 93.4533 249.556 85.6813 249.367 65.967Z" fill="#AD87FF"/>
<path d="M142.431 0L110.958 34.5V103.5L142.431 138H205.379L236.853 103.5V34.5L205.379 0H142.431Z" fill="#C4A9FF"/>
<path d="M146.223 8.34066L118.542 38.6703V99.3297L146.223 129.659H201.587L229.269 99.3297V38.6703L201.587 8.34066H146.223Z" fill="#D6C4FF"/>
<path d="M65.8324 38.8599C65.8324 42.7335 62.7765 45.8736 59.0068 45.8736C55.2371 45.8736 52.1811 42.7335 52.1811 38.8599C52.1811 34.9863 55.2371 31.8462 59.0068 31.8462C62.7765 31.8462 65.8324 34.9863 65.8324 38.8599Z" fill="#AD87FF"/>
<path d="M282.168 38.8599C282.168 42.7335 285.224 45.8736 288.993 45.8736C292.763 45.8736 295.819 42.7335 295.819 38.8599C295.819 34.9863 292.763 31.8462 288.993 31.8462C285.224 31.8462 282.168 34.9863 282.168 38.8599Z" fill="#AD87FF"/>
<path d="M19.5697 50.6126C19.5697 54.4862 16.5137 57.6264 12.744 57.6264C8.97434 57.6264 5.91839 54.4862 5.91839 50.6126C5.91839 46.7391 8.97434 43.5989 12.744 43.5989C16.5137 43.5989 19.5697 46.7391 19.5697 50.6126Z" fill="#AD87FF"/>
<path d="M328.43 50.6126C328.43 54.4862 331.486 57.6264 335.256 57.6264C339.026 57.6264 342.082 54.4862 342.082 50.6126C342.082 46.7391 339.026 43.5989 335.256 43.5989C331.486 43.5989 328.43 46.7391 328.43 50.6126Z" fill="#AD87FF"/>
<path d="M65.8324 36.9643C65.8324 40.8379 62.7765 43.978 59.0068 43.978C55.2371 43.978 52.1811 40.8379 52.1811 36.9643C52.1811 33.0907 55.2371 29.9506 59.0068 29.9506C62.7765 29.9506 65.8324 33.0907 65.8324 36.9643Z" fill="#C4A9FF"/>
<path d="M282.168 36.9643C282.168 40.8379 285.224 43.978 288.993 43.978C292.763 43.978 295.819 40.8379 295.819 36.9643C295.819 33.0907 292.763 29.9506 288.993 29.9506C285.224 29.9506 282.168 33.0907 282.168 36.9643Z" fill="#C4A9FF"/>
<path d="M19.5697 48.717C19.5697 52.5906 16.5137 55.7308 12.744 55.7308C8.97434 55.7308 5.91839 52.5906 5.91839 48.717C5.91839 44.8435 8.97434 41.7033 12.744 41.7033C16.5137 41.7033 19.5697 44.8435 19.5697 48.717Z" fill="#C4A9FF"/>
<path d="M328.43 48.717C328.43 52.5906 331.486 55.7308 335.256 55.7308C339.026 55.7308 342.082 52.5906 342.082 48.717C342.082 44.8435 339.026 41.7033 335.256 41.7033C331.486 41.7033 328.43 44.8435 328.43 48.717Z" fill="#C4A9FF"/>
<path d="M72.8605 5.1423L46.9113 6.27028C45.2474 6.34261 44.3749 8.27815 45.4229 9.57239C45.854 10.1048 46.5248 10.3837 47.2064 10.3138L73.0445 7.66431C74.1048 7.55558 74.5637 6.26509 73.81 5.51159C73.5592 5.26088 73.2148 5.1269 72.8605 5.1423Z" fill="#AD87FF"/>
<path d="M275.14 5.1423L301.089 6.27028C302.753 6.34261 303.625 8.27815 302.577 9.57239C302.146 10.1048 301.475 10.3837 300.794 10.3138L274.956 7.66431C273.895 7.55558 273.436 6.26509 274.19 5.51159C274.441 5.26088 274.785 5.1269 275.14 5.1423Z" fill="#AD87FF"/>
<path d="M72.2916 3.43626L46.3425 4.56424C44.6786 4.63657 43.8061 6.5721 44.8541 7.86634C45.2852 8.39878 45.956 8.67764 46.6376 8.60775L72.4757 5.95826C73.536 5.84954 73.9949 4.55904 73.2412 3.80554C72.9904 3.55483 72.6459 3.42086 72.2916 3.43626Z" fill="#C4A9FF"/>
<path d="M275.708 3.43626L301.657 4.56424C303.321 4.63657 304.194 6.5721 303.146 7.86634C302.715 8.39878 302.044 8.67764 301.362 8.60775L275.524 5.95826C274.464 5.84954 274.005 4.55904 274.759 3.80554C275.01 3.55483 275.354 3.42086 275.708 3.43626Z" fill="#C4A9FF"/>
<path d="M118.542 38.6703L110.958 34.5L142.431 0L146.223 8.34066L118.542 38.6703Z" fill="#874FFE"/>
<path d="M229.269 38.6703L236.853 34.5L205.379 0L201.587 8.34066L229.269 38.6703Z" fill="#AD87FF"/>
<path d="M229.269 99.3297L236.853 103.5L205.379 138L201.587 129.659L229.269 99.3297Z" fill="#874FFE"/>
<path d="M118.542 99.3297L110.958 103.5L142.431 138L146.223 129.659L118.542 99.3297Z" fill="#AD87FF"/>
</svg>
